<mxfile host="Electron" agent="Mozilla/5.0 (X11; Linux x86_64) AppleWebKit/537.36 (KHTML, like Gecko) draw.io/26.0.16 Chrome/132.0.6834.210 Electron/34.3.1 Safari/537.36" version="26.0.16" pages="8">
  <diagram name="1" id="AS0sLA-gUJZffBNNmKCp">
    <mxGraphModel dx="626" dy="903" grid="1" gridSize="10" guides="1" tooltips="1" connect="1" arrows="1" fold="1" page="1" pageScale="1" pageWidth="560" pageHeight="310" math="0" shadow="0">
      <root>
        <mxCell id="YqY_Bc5etBFNPCDuBgaJ-0" />
        <mxCell id="YqY_Bc5etBFNPCDuBgaJ-1" parent="YqY_Bc5etBFNPCDuBgaJ-0" />
        <mxCell id="YqY_Bc5etBFNPCDuBgaJ-2" value="" style="text;html=1;align=center;verticalAlign=middle;whiteSpace=wrap;rounded=0;fillColor=#dae8fc;strokeColor=#6c8ebf;fontSize=14;" parent="YqY_Bc5etBFNPCDuBgaJ-1" vertex="1">
          <mxGeometry x="70" y="210" width="20" height="20" as="geometry" />
        </mxCell>
        <mxCell id="YqY_Bc5etBFNPCDuBgaJ-3" value="" style="endArrow=classic;startArrow=classic;html=1;rounded=0;fillColor=#f5f5f5;strokeColor=#666666;edgeStyle=orthogonalEdgeStyle;" parent="YqY_Bc5etBFNPCDuBgaJ-1" edge="1">
          <mxGeometry width="50" height="50" relative="1" as="geometry">
            <mxPoint x="440" y="230" as="sourcePoint" />
            <mxPoint x="60" y="40" as="targetPoint" />
          </mxGeometry>
        </mxCell>
        <mxCell id="YqY_Bc5etBFNPCDuBgaJ-4" value="5" style="text;html=1;align=center;verticalAlign=middle;whiteSpace=wrap;rounded=0;fontSize=10;" parent="YqY_Bc5etBFNPCDuBgaJ-1" vertex="1">
          <mxGeometry x="40" y="120" width="20" height="20" as="geometry" />
        </mxCell>
        <mxCell id="YqY_Bc5etBFNPCDuBgaJ-5" value="4" style="text;html=1;align=center;verticalAlign=middle;whiteSpace=wrap;rounded=0;fontSize=10;" parent="YqY_Bc5etBFNPCDuBgaJ-1" vertex="1">
          <mxGeometry x="40" y="140" width="20" height="20" as="geometry" />
        </mxCell>
        <mxCell id="YqY_Bc5etBFNPCDuBgaJ-6" value="6" style="text;html=1;align=center;verticalAlign=middle;whiteSpace=wrap;rounded=0;fontSize=10;" parent="YqY_Bc5etBFNPCDuBgaJ-1" vertex="1">
          <mxGeometry x="40" y="100" width="20" height="20" as="geometry" />
        </mxCell>
        <mxCell id="YqY_Bc5etBFNPCDuBgaJ-7" value="7" style="text;html=1;align=center;verticalAlign=middle;whiteSpace=wrap;rounded=0;fontSize=10;" parent="YqY_Bc5etBFNPCDuBgaJ-1" vertex="1">
          <mxGeometry x="40" y="80" width="20" height="20" as="geometry" />
        </mxCell>
        <mxCell id="YqY_Bc5etBFNPCDuBgaJ-8" value="8" style="text;html=1;align=center;verticalAlign=middle;whiteSpace=wrap;rounded=0;fontSize=10;" parent="YqY_Bc5etBFNPCDuBgaJ-1" vertex="1">
          <mxGeometry x="40" y="60" width="20" height="20" as="geometry" />
        </mxCell>
        <mxCell id="YqY_Bc5etBFNPCDuBgaJ-9" value="3" style="text;html=1;align=center;verticalAlign=middle;whiteSpace=wrap;rounded=0;fontSize=10;" parent="YqY_Bc5etBFNPCDuBgaJ-1" vertex="1">
          <mxGeometry x="40" y="160" width="20" height="20" as="geometry" />
        </mxCell>
        <mxCell id="YqY_Bc5etBFNPCDuBgaJ-10" value="2" style="text;html=1;align=center;verticalAlign=middle;whiteSpace=wrap;rounded=0;fontSize=10;" parent="YqY_Bc5etBFNPCDuBgaJ-1" vertex="1">
          <mxGeometry x="40" y="180" width="20" height="20" as="geometry" />
        </mxCell>
        <mxCell id="YqY_Bc5etBFNPCDuBgaJ-11" value="1" style="text;html=1;align=center;verticalAlign=middle;whiteSpace=wrap;rounded=0;fontSize=10;" parent="YqY_Bc5etBFNPCDuBgaJ-1" vertex="1">
          <mxGeometry x="40" y="200" width="20" height="20" as="geometry" />
        </mxCell>
        <mxCell id="YqY_Bc5etBFNPCDuBgaJ-12" value="0" style="text;html=1;align=center;verticalAlign=middle;whiteSpace=wrap;rounded=0;fontSize=10;" parent="YqY_Bc5etBFNPCDuBgaJ-1" vertex="1">
          <mxGeometry x="40" y="230" width="20" height="20" as="geometry" />
        </mxCell>
        <mxCell id="YqY_Bc5etBFNPCDuBgaJ-13" value="1" style="text;html=1;align=center;verticalAlign=middle;whiteSpace=wrap;rounded=0;fontSize=10;" parent="YqY_Bc5etBFNPCDuBgaJ-1" vertex="1">
          <mxGeometry x="60" y="230" width="40" height="20" as="geometry" />
        </mxCell>
        <mxCell id="YqY_Bc5etBFNPCDuBgaJ-14" value="2" style="text;html=1;align=center;verticalAlign=middle;whiteSpace=wrap;rounded=0;fontSize=10;" parent="YqY_Bc5etBFNPCDuBgaJ-1" vertex="1">
          <mxGeometry x="100" y="230" width="40" height="20" as="geometry" />
        </mxCell>
        <mxCell id="YqY_Bc5etBFNPCDuBgaJ-15" value="3" style="text;html=1;align=center;verticalAlign=middle;whiteSpace=wrap;rounded=0;fontSize=10;" parent="YqY_Bc5etBFNPCDuBgaJ-1" vertex="1">
          <mxGeometry x="140" y="230" width="40" height="20" as="geometry" />
        </mxCell>
        <mxCell id="YqY_Bc5etBFNPCDuBgaJ-16" value="4" style="text;html=1;align=center;verticalAlign=middle;whiteSpace=wrap;rounded=0;fontSize=10;" parent="YqY_Bc5etBFNPCDuBgaJ-1" vertex="1">
          <mxGeometry x="180" y="230" width="40" height="20" as="geometry" />
        </mxCell>
        <mxCell id="YqY_Bc5etBFNPCDuBgaJ-17" value="5" style="text;html=1;align=center;verticalAlign=middle;whiteSpace=wrap;rounded=0;fontSize=10;" parent="YqY_Bc5etBFNPCDuBgaJ-1" vertex="1">
          <mxGeometry x="220" y="230" width="40" height="20" as="geometry" />
        </mxCell>
        <mxCell id="YqY_Bc5etBFNPCDuBgaJ-18" value="6" style="text;html=1;align=center;verticalAlign=middle;whiteSpace=wrap;rounded=0;fontSize=10;" parent="YqY_Bc5etBFNPCDuBgaJ-1" vertex="1">
          <mxGeometry x="260" y="230" width="40" height="20" as="geometry" />
        </mxCell>
        <mxCell id="YqY_Bc5etBFNPCDuBgaJ-19" value="7" style="text;html=1;align=center;verticalAlign=middle;whiteSpace=wrap;rounded=0;fontSize=10;" parent="YqY_Bc5etBFNPCDuBgaJ-1" vertex="1">
          <mxGeometry x="300" y="230" width="40" height="20" as="geometry" />
        </mxCell>
        <mxCell id="YqY_Bc5etBFNPCDuBgaJ-20" value="8" style="text;html=1;align=center;verticalAlign=middle;whiteSpace=wrap;rounded=0;fontSize=10;" parent="YqY_Bc5etBFNPCDuBgaJ-1" vertex="1">
          <mxGeometry x="340" y="230" width="40" height="20" as="geometry" />
        </mxCell>
        <mxCell id="YqY_Bc5etBFNPCDuBgaJ-21" value="" style="text;html=1;align=center;verticalAlign=middle;whiteSpace=wrap;rounded=0;fillColor=#f5f5f5;strokeColor=#666666;fontSize=14;fontColor=#333333;" parent="YqY_Bc5etBFNPCDuBgaJ-1" vertex="1">
          <mxGeometry x="110" y="70" width="20" height="160" as="geometry" />
        </mxCell>
        <mxCell id="YqY_Bc5etBFNPCDuBgaJ-22" value="" style="text;html=1;align=center;verticalAlign=middle;whiteSpace=wrap;rounded=0;fillColor=#f5f5f5;strokeColor=#666666;fontSize=14;fontColor=#333333;" parent="YqY_Bc5etBFNPCDuBgaJ-1" vertex="1">
          <mxGeometry x="150" y="110" width="20" height="120" as="geometry" />
        </mxCell>
        <mxCell id="YqY_Bc5etBFNPCDuBgaJ-23" value="" style="text;html=1;align=center;verticalAlign=middle;whiteSpace=wrap;rounded=0;fillColor=#f5f5f5;strokeColor=#666666;fontSize=14;fontColor=#333333;" parent="YqY_Bc5etBFNPCDuBgaJ-1" vertex="1">
          <mxGeometry x="190" y="190" width="20" height="40" as="geometry" />
        </mxCell>
        <mxCell id="YqY_Bc5etBFNPCDuBgaJ-24" value="" style="text;html=1;align=center;verticalAlign=middle;whiteSpace=wrap;rounded=0;fillColor=#f5f5f5;strokeColor=#666666;fontSize=14;fontColor=#333333;" parent="YqY_Bc5etBFNPCDuBgaJ-1" vertex="1">
          <mxGeometry x="230" y="130" width="20" height="100" as="geometry" />
        </mxCell>
        <mxCell id="YqY_Bc5etBFNPCDuBgaJ-25" value="" style="text;html=1;align=center;verticalAlign=middle;whiteSpace=wrap;rounded=0;fillColor=#f5f5f5;strokeColor=#666666;fontSize=14;fontColor=#333333;" parent="YqY_Bc5etBFNPCDuBgaJ-1" vertex="1">
          <mxGeometry x="270" y="150" width="20" height="80" as="geometry" />
        </mxCell>
        <mxCell id="YqY_Bc5etBFNPCDuBgaJ-26" value="" style="text;html=1;align=center;verticalAlign=middle;whiteSpace=wrap;rounded=0;fillColor=#f5f5f5;strokeColor=#666666;fontSize=14;fontColor=#333333;" parent="YqY_Bc5etBFNPCDuBgaJ-1" vertex="1">
          <mxGeometry x="310" y="70" width="20" height="160" as="geometry" />
        </mxCell>
        <mxCell id="YqY_Bc5etBFNPCDuBgaJ-27" value="" style="text;html=1;align=center;verticalAlign=middle;whiteSpace=wrap;rounded=0;fillColor=#f5f5f5;strokeColor=#666666;fontSize=14;fontColor=#333333;" parent="YqY_Bc5etBFNPCDuBgaJ-1" vertex="1">
          <mxGeometry x="350" y="170" width="20" height="60" as="geometry" />
        </mxCell>
        <mxCell id="YqY_Bc5etBFNPCDuBgaJ-28" value="9" style="text;html=1;align=center;verticalAlign=middle;whiteSpace=wrap;rounded=0;fontSize=10;" parent="YqY_Bc5etBFNPCDuBgaJ-1" vertex="1">
          <mxGeometry x="380" y="230" width="40" height="20" as="geometry" />
        </mxCell>
        <mxCell id="YqY_Bc5etBFNPCDuBgaJ-29" value="" style="text;html=1;align=center;verticalAlign=middle;whiteSpace=wrap;rounded=0;fillColor=#d5e8d4;strokeColor=#82b366;fontSize=14;" parent="YqY_Bc5etBFNPCDuBgaJ-1" vertex="1">
          <mxGeometry x="390" y="90" width="20" height="140" as="geometry" />
        </mxCell>
        <mxCell id="rasVYC-pGlTXkJhINTKd-0" value="start" style="text;html=1;align=center;verticalAlign=middle;whiteSpace=wrap;rounded=0;fontSize=10;" parent="YqY_Bc5etBFNPCDuBgaJ-1" vertex="1">
          <mxGeometry x="60" y="40" width="40" height="20" as="geometry" />
        </mxCell>
        <mxCell id="rasVYC-pGlTXkJhINTKd-1" value="end" style="text;html=1;align=center;verticalAlign=middle;whiteSpace=wrap;rounded=0;fontSize=10;" parent="YqY_Bc5etBFNPCDuBgaJ-1" vertex="1">
          <mxGeometry x="380" y="40" width="40" height="20" as="geometry" />
        </mxCell>
        <mxCell id="AghPVLp6tl62Hx-hMCT9-0" value="" style="rounded=0;whiteSpace=wrap;html=1;opacity=60;fillColor=#ffe6cc;strokeColor=#d79b00;" parent="YqY_Bc5etBFNPCDuBgaJ-1" vertex="1">
          <mxGeometry x="90" y="210" width="300" height="20" as="geometry" />
        </mxCell>
        <mxCell id="AghPVLp6tl62Hx-hMCT9-1" value="8" style="text;html=1;align=center;verticalAlign=middle;whiteSpace=wrap;rounded=0;fillColor=#ffe6cc;strokeColor=#d79b00;fontSize=14;fontColor=#333333;" parent="YqY_Bc5etBFNPCDuBgaJ-1" vertex="1">
          <mxGeometry x="480" y="40" width="40" height="40" as="geometry" />
        </mxCell>
        <mxCell id="AghPVLp6tl62Hx-hMCT9-2" value="water" style="text;html=1;align=center;verticalAlign=middle;whiteSpace=wrap;rounded=0;fontSize=10;" parent="YqY_Bc5etBFNPCDuBgaJ-1" vertex="1">
          <mxGeometry x="480" y="80" width="40" height="20" as="geometry" />
        </mxCell>
        <mxCell id="hkavZUN2RnwiyzaYQdda-0" value="8" style="text;html=1;align=center;verticalAlign=middle;whiteSpace=wrap;rounded=0;fillColor=#fff2cc;strokeColor=#d6b656;fontSize=14;fontColor=#333333;" parent="YqY_Bc5etBFNPCDuBgaJ-1" vertex="1">
          <mxGeometry x="480" y="120" width="40" height="40" as="geometry" />
        </mxCell>
        <mxCell id="hkavZUN2RnwiyzaYQdda-1" value="max" style="text;html=1;align=center;verticalAlign=middle;whiteSpace=wrap;rounded=0;fontSize=10;" parent="YqY_Bc5etBFNPCDuBgaJ-1" vertex="1">
          <mxGeometry x="480" y="160" width="40" height="20" as="geometry" />
        </mxCell>
        <mxCell id="gTNXcDnvRsxBDQA0svft-0" value="height" style="text;html=1;align=center;verticalAlign=middle;whiteSpace=wrap;rounded=0;fontSize=10;" vertex="1" parent="YqY_Bc5etBFNPCDuBgaJ-1">
          <mxGeometry x="40" y="250" width="400" height="20" as="geometry" />
        </mxCell>
      </root>
    </mxGraphModel>
  </diagram>
  <diagram name="2" id="68a3lQP-FmYN2JLL2XuK">
    <mxGraphModel dx="751" dy="1084" grid="1" gridSize="10" guides="1" tooltips="1" connect="1" arrows="1" fold="1" page="1" pageScale="1" pageWidth="560" pageHeight="310" math="0" shadow="0">
      <root>
        <mxCell id="AVVKIU0dX80vfWnTar1h-0" />
        <mxCell id="AVVKIU0dX80vfWnTar1h-1" parent="AVVKIU0dX80vfWnTar1h-0" />
        <mxCell id="AVVKIU0dX80vfWnTar1h-2" value="" style="text;html=1;align=center;verticalAlign=middle;whiteSpace=wrap;rounded=0;fillColor=#f5f5f5;strokeColor=#666666;fontSize=14;fontColor=#333333;" parent="AVVKIU0dX80vfWnTar1h-1" vertex="1">
          <mxGeometry x="70" y="210" width="20" height="20" as="geometry" />
        </mxCell>
        <mxCell id="AVVKIU0dX80vfWnTar1h-3" value="" style="endArrow=classic;startArrow=classic;html=1;rounded=0;fillColor=#f5f5f5;strokeColor=#666666;edgeStyle=orthogonalEdgeStyle;" parent="AVVKIU0dX80vfWnTar1h-1" edge="1">
          <mxGeometry width="50" height="50" relative="1" as="geometry">
            <mxPoint x="440" y="230" as="sourcePoint" />
            <mxPoint x="60" y="40" as="targetPoint" />
          </mxGeometry>
        </mxCell>
        <mxCell id="AVVKIU0dX80vfWnTar1h-4" value="5" style="text;html=1;align=center;verticalAlign=middle;whiteSpace=wrap;rounded=0;fontSize=10;" parent="AVVKIU0dX80vfWnTar1h-1" vertex="1">
          <mxGeometry x="40" y="120" width="20" height="20" as="geometry" />
        </mxCell>
        <mxCell id="AVVKIU0dX80vfWnTar1h-5" value="4" style="text;html=1;align=center;verticalAlign=middle;whiteSpace=wrap;rounded=0;fontSize=10;" parent="AVVKIU0dX80vfWnTar1h-1" vertex="1">
          <mxGeometry x="40" y="140" width="20" height="20" as="geometry" />
        </mxCell>
        <mxCell id="AVVKIU0dX80vfWnTar1h-6" value="6" style="text;html=1;align=center;verticalAlign=middle;whiteSpace=wrap;rounded=0;fontSize=10;" parent="AVVKIU0dX80vfWnTar1h-1" vertex="1">
          <mxGeometry x="40" y="100" width="20" height="20" as="geometry" />
        </mxCell>
        <mxCell id="AVVKIU0dX80vfWnTar1h-7" value="7" style="text;html=1;align=center;verticalAlign=middle;whiteSpace=wrap;rounded=0;fontSize=10;" parent="AVVKIU0dX80vfWnTar1h-1" vertex="1">
          <mxGeometry x="40" y="80" width="20" height="20" as="geometry" />
        </mxCell>
        <mxCell id="AVVKIU0dX80vfWnTar1h-8" value="8" style="text;html=1;align=center;verticalAlign=middle;whiteSpace=wrap;rounded=0;fontSize=10;" parent="AVVKIU0dX80vfWnTar1h-1" vertex="1">
          <mxGeometry x="40" y="60" width="20" height="20" as="geometry" />
        </mxCell>
        <mxCell id="AVVKIU0dX80vfWnTar1h-9" value="3" style="text;html=1;align=center;verticalAlign=middle;whiteSpace=wrap;rounded=0;fontSize=10;" parent="AVVKIU0dX80vfWnTar1h-1" vertex="1">
          <mxGeometry x="40" y="160" width="20" height="20" as="geometry" />
        </mxCell>
        <mxCell id="AVVKIU0dX80vfWnTar1h-10" value="2" style="text;html=1;align=center;verticalAlign=middle;whiteSpace=wrap;rounded=0;fontSize=10;" parent="AVVKIU0dX80vfWnTar1h-1" vertex="1">
          <mxGeometry x="40" y="180" width="20" height="20" as="geometry" />
        </mxCell>
        <mxCell id="AVVKIU0dX80vfWnTar1h-11" value="1" style="text;html=1;align=center;verticalAlign=middle;whiteSpace=wrap;rounded=0;fontSize=10;" parent="AVVKIU0dX80vfWnTar1h-1" vertex="1">
          <mxGeometry x="40" y="200" width="20" height="20" as="geometry" />
        </mxCell>
        <mxCell id="AVVKIU0dX80vfWnTar1h-12" value="0" style="text;html=1;align=center;verticalAlign=middle;whiteSpace=wrap;rounded=0;fontSize=10;" parent="AVVKIU0dX80vfWnTar1h-1" vertex="1">
          <mxGeometry x="40" y="230" width="20" height="20" as="geometry" />
        </mxCell>
        <mxCell id="AVVKIU0dX80vfWnTar1h-13" value="1" style="text;html=1;align=center;verticalAlign=middle;whiteSpace=wrap;rounded=0;fontSize=10;" parent="AVVKIU0dX80vfWnTar1h-1" vertex="1">
          <mxGeometry x="60" y="230" width="40" height="20" as="geometry" />
        </mxCell>
        <mxCell id="AVVKIU0dX80vfWnTar1h-14" value="2" style="text;html=1;align=center;verticalAlign=middle;whiteSpace=wrap;rounded=0;fontSize=10;" parent="AVVKIU0dX80vfWnTar1h-1" vertex="1">
          <mxGeometry x="100" y="230" width="40" height="20" as="geometry" />
        </mxCell>
        <mxCell id="AVVKIU0dX80vfWnTar1h-15" value="3" style="text;html=1;align=center;verticalAlign=middle;whiteSpace=wrap;rounded=0;fontSize=10;" parent="AVVKIU0dX80vfWnTar1h-1" vertex="1">
          <mxGeometry x="140" y="230" width="40" height="20" as="geometry" />
        </mxCell>
        <mxCell id="AVVKIU0dX80vfWnTar1h-16" value="4" style="text;html=1;align=center;verticalAlign=middle;whiteSpace=wrap;rounded=0;fontSize=10;" parent="AVVKIU0dX80vfWnTar1h-1" vertex="1">
          <mxGeometry x="180" y="230" width="40" height="20" as="geometry" />
        </mxCell>
        <mxCell id="AVVKIU0dX80vfWnTar1h-17" value="5" style="text;html=1;align=center;verticalAlign=middle;whiteSpace=wrap;rounded=0;fontSize=10;" parent="AVVKIU0dX80vfWnTar1h-1" vertex="1">
          <mxGeometry x="220" y="230" width="40" height="20" as="geometry" />
        </mxCell>
        <mxCell id="AVVKIU0dX80vfWnTar1h-18" value="6" style="text;html=1;align=center;verticalAlign=middle;whiteSpace=wrap;rounded=0;fontSize=10;" parent="AVVKIU0dX80vfWnTar1h-1" vertex="1">
          <mxGeometry x="260" y="230" width="40" height="20" as="geometry" />
        </mxCell>
        <mxCell id="AVVKIU0dX80vfWnTar1h-19" value="7" style="text;html=1;align=center;verticalAlign=middle;whiteSpace=wrap;rounded=0;fontSize=10;" parent="AVVKIU0dX80vfWnTar1h-1" vertex="1">
          <mxGeometry x="300" y="230" width="40" height="20" as="geometry" />
        </mxCell>
        <mxCell id="AVVKIU0dX80vfWnTar1h-20" value="8" style="text;html=1;align=center;verticalAlign=middle;whiteSpace=wrap;rounded=0;fontSize=10;" parent="AVVKIU0dX80vfWnTar1h-1" vertex="1">
          <mxGeometry x="340" y="230" width="40" height="20" as="geometry" />
        </mxCell>
        <mxCell id="AVVKIU0dX80vfWnTar1h-21" value="" style="text;html=1;align=center;verticalAlign=middle;whiteSpace=wrap;rounded=0;fillColor=#dae8fc;strokeColor=#6c8ebf;fontSize=14;" parent="AVVKIU0dX80vfWnTar1h-1" vertex="1">
          <mxGeometry x="110" y="70" width="20" height="160" as="geometry" />
        </mxCell>
        <mxCell id="AVVKIU0dX80vfWnTar1h-22" value="" style="text;html=1;align=center;verticalAlign=middle;whiteSpace=wrap;rounded=0;fillColor=#f5f5f5;strokeColor=#666666;fontSize=14;fontColor=#333333;" parent="AVVKIU0dX80vfWnTar1h-1" vertex="1">
          <mxGeometry x="150" y="110" width="20" height="120" as="geometry" />
        </mxCell>
        <mxCell id="AVVKIU0dX80vfWnTar1h-23" value="" style="text;html=1;align=center;verticalAlign=middle;whiteSpace=wrap;rounded=0;fillColor=#f5f5f5;strokeColor=#666666;fontSize=14;fontColor=#333333;" parent="AVVKIU0dX80vfWnTar1h-1" vertex="1">
          <mxGeometry x="190" y="190" width="20" height="40" as="geometry" />
        </mxCell>
        <mxCell id="AVVKIU0dX80vfWnTar1h-24" value="" style="text;html=1;align=center;verticalAlign=middle;whiteSpace=wrap;rounded=0;fillColor=#f5f5f5;strokeColor=#666666;fontSize=14;fontColor=#333333;" parent="AVVKIU0dX80vfWnTar1h-1" vertex="1">
          <mxGeometry x="230" y="130" width="20" height="100" as="geometry" />
        </mxCell>
        <mxCell id="AVVKIU0dX80vfWnTar1h-25" value="" style="text;html=1;align=center;verticalAlign=middle;whiteSpace=wrap;rounded=0;fillColor=#f5f5f5;strokeColor=#666666;fontSize=14;fontColor=#333333;" parent="AVVKIU0dX80vfWnTar1h-1" vertex="1">
          <mxGeometry x="270" y="150" width="20" height="80" as="geometry" />
        </mxCell>
        <mxCell id="AVVKIU0dX80vfWnTar1h-26" value="" style="text;html=1;align=center;verticalAlign=middle;whiteSpace=wrap;rounded=0;fillColor=#f5f5f5;strokeColor=#666666;fontSize=14;fontColor=#333333;" parent="AVVKIU0dX80vfWnTar1h-1" vertex="1">
          <mxGeometry x="310" y="70" width="20" height="160" as="geometry" />
        </mxCell>
        <mxCell id="AVVKIU0dX80vfWnTar1h-27" value="" style="text;html=1;align=center;verticalAlign=middle;whiteSpace=wrap;rounded=0;fillColor=#f5f5f5;strokeColor=#666666;fontSize=14;fontColor=#333333;" parent="AVVKIU0dX80vfWnTar1h-1" vertex="1">
          <mxGeometry x="350" y="170" width="20" height="60" as="geometry" />
        </mxCell>
        <mxCell id="AVVKIU0dX80vfWnTar1h-28" value="9" style="text;html=1;align=center;verticalAlign=middle;whiteSpace=wrap;rounded=0;fontSize=10;" parent="AVVKIU0dX80vfWnTar1h-1" vertex="1">
          <mxGeometry x="380" y="230" width="40" height="20" as="geometry" />
        </mxCell>
        <mxCell id="AVVKIU0dX80vfWnTar1h-29" value="" style="text;html=1;align=center;verticalAlign=middle;whiteSpace=wrap;rounded=0;fillColor=#d5e8d4;strokeColor=#82b366;fontSize=14;" parent="AVVKIU0dX80vfWnTar1h-1" vertex="1">
          <mxGeometry x="390" y="90" width="20" height="140" as="geometry" />
        </mxCell>
        <mxCell id="AVVKIU0dX80vfWnTar1h-30" value="start" style="text;html=1;align=center;verticalAlign=middle;whiteSpace=wrap;rounded=0;fontSize=10;" parent="AVVKIU0dX80vfWnTar1h-1" vertex="1">
          <mxGeometry x="100" y="40" width="40" height="20" as="geometry" />
        </mxCell>
        <mxCell id="AVVKIU0dX80vfWnTar1h-31" value="end" style="text;html=1;align=center;verticalAlign=middle;whiteSpace=wrap;rounded=0;fontSize=10;" parent="AVVKIU0dX80vfWnTar1h-1" vertex="1">
          <mxGeometry x="380" y="40" width="40" height="20" as="geometry" />
        </mxCell>
        <mxCell id="AVVKIU0dX80vfWnTar1h-32" value="" style="rounded=0;whiteSpace=wrap;html=1;opacity=60;fillColor=#ffe6cc;strokeColor=#d79b00;" parent="AVVKIU0dX80vfWnTar1h-1" vertex="1">
          <mxGeometry x="130" y="90" width="260" height="140" as="geometry" />
        </mxCell>
        <mxCell id="AVVKIU0dX80vfWnTar1h-33" value="49" style="text;html=1;align=center;verticalAlign=middle;whiteSpace=wrap;rounded=0;fillColor=#ffe6cc;strokeColor=#d79b00;fontSize=14;fontColor=#333333;" parent="AVVKIU0dX80vfWnTar1h-1" vertex="1">
          <mxGeometry x="480" y="40" width="40" height="40" as="geometry" />
        </mxCell>
        <mxCell id="AVVKIU0dX80vfWnTar1h-34" value="water" style="text;html=1;align=center;verticalAlign=middle;whiteSpace=wrap;rounded=0;fontSize=10;" parent="AVVKIU0dX80vfWnTar1h-1" vertex="1">
          <mxGeometry x="480" y="80" width="40" height="20" as="geometry" />
        </mxCell>
        <mxCell id="siJbXQWNgsg79CLbfrZU-0" value="49" style="text;html=1;align=center;verticalAlign=middle;whiteSpace=wrap;rounded=0;fillColor=#fff2cc;strokeColor=#d6b656;fontSize=14;fontColor=#333333;" parent="AVVKIU0dX80vfWnTar1h-1" vertex="1">
          <mxGeometry x="480" y="120" width="40" height="40" as="geometry" />
        </mxCell>
        <mxCell id="siJbXQWNgsg79CLbfrZU-1" value="max" style="text;html=1;align=center;verticalAlign=middle;whiteSpace=wrap;rounded=0;fontSize=10;" parent="AVVKIU0dX80vfWnTar1h-1" vertex="1">
          <mxGeometry x="480" y="160" width="40" height="20" as="geometry" />
        </mxCell>
        <mxCell id="z54g5WdfM5g12cHjJUO_-0" value="height" style="text;html=1;align=center;verticalAlign=middle;whiteSpace=wrap;rounded=0;fontSize=10;" vertex="1" parent="AVVKIU0dX80vfWnTar1h-1">
          <mxGeometry x="40" y="250" width="400" height="20" as="geometry" />
        </mxCell>
      </root>
    </mxGraphModel>
  </diagram>
  <diagram name="3" id="5PBYQOW1zZSZAaw25y6b">
    <mxGraphModel dx="751" dy="1084" grid="1" gridSize="10" guides="1" tooltips="1" connect="1" arrows="1" fold="1" page="1" pageScale="1" pageWidth="560" pageHeight="310" math="0" shadow="0">
      <root>
        <mxCell id="og3vTp99C-auBl7smm6g-0" />
        <mxCell id="og3vTp99C-auBl7smm6g-1" parent="og3vTp99C-auBl7smm6g-0" />
        <mxCell id="og3vTp99C-auBl7smm6g-2" value="" style="text;html=1;align=center;verticalAlign=middle;whiteSpace=wrap;rounded=0;fillColor=#f5f5f5;strokeColor=#666666;fontSize=14;fontColor=#333333;" parent="og3vTp99C-auBl7smm6g-1" vertex="1">
          <mxGeometry x="70" y="210" width="20" height="20" as="geometry" />
        </mxCell>
        <mxCell id="og3vTp99C-auBl7smm6g-3" value="" style="endArrow=classic;startArrow=classic;html=1;rounded=0;fillColor=#f5f5f5;strokeColor=#666666;edgeStyle=orthogonalEdgeStyle;" parent="og3vTp99C-auBl7smm6g-1" edge="1">
          <mxGeometry width="50" height="50" relative="1" as="geometry">
            <mxPoint x="440" y="230" as="sourcePoint" />
            <mxPoint x="60" y="40" as="targetPoint" />
          </mxGeometry>
        </mxCell>
        <mxCell id="og3vTp99C-auBl7smm6g-4" value="5" style="text;html=1;align=center;verticalAlign=middle;whiteSpace=wrap;rounded=0;fontSize=10;" parent="og3vTp99C-auBl7smm6g-1" vertex="1">
          <mxGeometry x="40" y="120" width="20" height="20" as="geometry" />
        </mxCell>
        <mxCell id="og3vTp99C-auBl7smm6g-5" value="4" style="text;html=1;align=center;verticalAlign=middle;whiteSpace=wrap;rounded=0;fontSize=10;" parent="og3vTp99C-auBl7smm6g-1" vertex="1">
          <mxGeometry x="40" y="140" width="20" height="20" as="geometry" />
        </mxCell>
        <mxCell id="og3vTp99C-auBl7smm6g-6" value="6" style="text;html=1;align=center;verticalAlign=middle;whiteSpace=wrap;rounded=0;fontSize=10;" parent="og3vTp99C-auBl7smm6g-1" vertex="1">
          <mxGeometry x="40" y="100" width="20" height="20" as="geometry" />
        </mxCell>
        <mxCell id="og3vTp99C-auBl7smm6g-7" value="7" style="text;html=1;align=center;verticalAlign=middle;whiteSpace=wrap;rounded=0;fontSize=10;" parent="og3vTp99C-auBl7smm6g-1" vertex="1">
          <mxGeometry x="40" y="80" width="20" height="20" as="geometry" />
        </mxCell>
        <mxCell id="og3vTp99C-auBl7smm6g-8" value="8" style="text;html=1;align=center;verticalAlign=middle;whiteSpace=wrap;rounded=0;fontSize=10;" parent="og3vTp99C-auBl7smm6g-1" vertex="1">
          <mxGeometry x="40" y="60" width="20" height="20" as="geometry" />
        </mxCell>
        <mxCell id="og3vTp99C-auBl7smm6g-9" value="3" style="text;html=1;align=center;verticalAlign=middle;whiteSpace=wrap;rounded=0;fontSize=10;" parent="og3vTp99C-auBl7smm6g-1" vertex="1">
          <mxGeometry x="40" y="160" width="20" height="20" as="geometry" />
        </mxCell>
        <mxCell id="og3vTp99C-auBl7smm6g-10" value="2" style="text;html=1;align=center;verticalAlign=middle;whiteSpace=wrap;rounded=0;fontSize=10;" parent="og3vTp99C-auBl7smm6g-1" vertex="1">
          <mxGeometry x="40" y="180" width="20" height="20" as="geometry" />
        </mxCell>
        <mxCell id="og3vTp99C-auBl7smm6g-11" value="1" style="text;html=1;align=center;verticalAlign=middle;whiteSpace=wrap;rounded=0;fontSize=10;" parent="og3vTp99C-auBl7smm6g-1" vertex="1">
          <mxGeometry x="40" y="200" width="20" height="20" as="geometry" />
        </mxCell>
        <mxCell id="og3vTp99C-auBl7smm6g-12" value="0" style="text;html=1;align=center;verticalAlign=middle;whiteSpace=wrap;rounded=0;fontSize=10;" parent="og3vTp99C-auBl7smm6g-1" vertex="1">
          <mxGeometry x="40" y="230" width="20" height="20" as="geometry" />
        </mxCell>
        <mxCell id="og3vTp99C-auBl7smm6g-13" value="1" style="text;html=1;align=center;verticalAlign=middle;whiteSpace=wrap;rounded=0;fontSize=10;" parent="og3vTp99C-auBl7smm6g-1" vertex="1">
          <mxGeometry x="60" y="230" width="40" height="20" as="geometry" />
        </mxCell>
        <mxCell id="og3vTp99C-auBl7smm6g-14" value="2" style="text;html=1;align=center;verticalAlign=middle;whiteSpace=wrap;rounded=0;fontSize=10;" parent="og3vTp99C-auBl7smm6g-1" vertex="1">
          <mxGeometry x="100" y="230" width="40" height="20" as="geometry" />
        </mxCell>
        <mxCell id="og3vTp99C-auBl7smm6g-15" value="3" style="text;html=1;align=center;verticalAlign=middle;whiteSpace=wrap;rounded=0;fontSize=10;" parent="og3vTp99C-auBl7smm6g-1" vertex="1">
          <mxGeometry x="140" y="230" width="40" height="20" as="geometry" />
        </mxCell>
        <mxCell id="og3vTp99C-auBl7smm6g-16" value="4" style="text;html=1;align=center;verticalAlign=middle;whiteSpace=wrap;rounded=0;fontSize=10;" parent="og3vTp99C-auBl7smm6g-1" vertex="1">
          <mxGeometry x="180" y="230" width="40" height="20" as="geometry" />
        </mxCell>
        <mxCell id="og3vTp99C-auBl7smm6g-17" value="5" style="text;html=1;align=center;verticalAlign=middle;whiteSpace=wrap;rounded=0;fontSize=10;" parent="og3vTp99C-auBl7smm6g-1" vertex="1">
          <mxGeometry x="220" y="230" width="40" height="20" as="geometry" />
        </mxCell>
        <mxCell id="og3vTp99C-auBl7smm6g-18" value="6" style="text;html=1;align=center;verticalAlign=middle;whiteSpace=wrap;rounded=0;fontSize=10;" parent="og3vTp99C-auBl7smm6g-1" vertex="1">
          <mxGeometry x="260" y="230" width="40" height="20" as="geometry" />
        </mxCell>
        <mxCell id="og3vTp99C-auBl7smm6g-19" value="7" style="text;html=1;align=center;verticalAlign=middle;whiteSpace=wrap;rounded=0;fontSize=10;" parent="og3vTp99C-auBl7smm6g-1" vertex="1">
          <mxGeometry x="300" y="230" width="40" height="20" as="geometry" />
        </mxCell>
        <mxCell id="og3vTp99C-auBl7smm6g-20" value="8" style="text;html=1;align=center;verticalAlign=middle;whiteSpace=wrap;rounded=0;fontSize=10;" parent="og3vTp99C-auBl7smm6g-1" vertex="1">
          <mxGeometry x="340" y="230" width="40" height="20" as="geometry" />
        </mxCell>
        <mxCell id="og3vTp99C-auBl7smm6g-21" value="" style="text;html=1;align=center;verticalAlign=middle;whiteSpace=wrap;rounded=0;fillColor=#dae8fc;strokeColor=#6c8ebf;fontSize=14;" parent="og3vTp99C-auBl7smm6g-1" vertex="1">
          <mxGeometry x="110" y="70" width="20" height="160" as="geometry" />
        </mxCell>
        <mxCell id="og3vTp99C-auBl7smm6g-22" value="" style="text;html=1;align=center;verticalAlign=middle;whiteSpace=wrap;rounded=0;fillColor=#f5f5f5;strokeColor=#666666;fontSize=14;fontColor=#333333;" parent="og3vTp99C-auBl7smm6g-1" vertex="1">
          <mxGeometry x="150" y="110" width="20" height="120" as="geometry" />
        </mxCell>
        <mxCell id="og3vTp99C-auBl7smm6g-23" value="" style="text;html=1;align=center;verticalAlign=middle;whiteSpace=wrap;rounded=0;fillColor=#f5f5f5;strokeColor=#666666;fontSize=14;fontColor=#333333;" parent="og3vTp99C-auBl7smm6g-1" vertex="1">
          <mxGeometry x="190" y="190" width="20" height="40" as="geometry" />
        </mxCell>
        <mxCell id="og3vTp99C-auBl7smm6g-24" value="" style="text;html=1;align=center;verticalAlign=middle;whiteSpace=wrap;rounded=0;fillColor=#f5f5f5;strokeColor=#666666;fontSize=14;fontColor=#333333;" parent="og3vTp99C-auBl7smm6g-1" vertex="1">
          <mxGeometry x="230" y="130" width="20" height="100" as="geometry" />
        </mxCell>
        <mxCell id="og3vTp99C-auBl7smm6g-25" value="" style="text;html=1;align=center;verticalAlign=middle;whiteSpace=wrap;rounded=0;fillColor=#f5f5f5;strokeColor=#666666;fontSize=14;fontColor=#333333;" parent="og3vTp99C-auBl7smm6g-1" vertex="1">
          <mxGeometry x="270" y="150" width="20" height="80" as="geometry" />
        </mxCell>
        <mxCell id="og3vTp99C-auBl7smm6g-26" value="" style="text;html=1;align=center;verticalAlign=middle;whiteSpace=wrap;rounded=0;fillColor=#f5f5f5;strokeColor=#666666;fontSize=14;fontColor=#333333;" parent="og3vTp99C-auBl7smm6g-1" vertex="1">
          <mxGeometry x="310" y="70" width="20" height="160" as="geometry" />
        </mxCell>
        <mxCell id="og3vTp99C-auBl7smm6g-27" value="" style="text;html=1;align=center;verticalAlign=middle;whiteSpace=wrap;rounded=0;fillColor=#d5e8d4;strokeColor=#82b366;fontSize=14;" parent="og3vTp99C-auBl7smm6g-1" vertex="1">
          <mxGeometry x="350" y="170" width="20" height="60" as="geometry" />
        </mxCell>
        <mxCell id="og3vTp99C-auBl7smm6g-28" value="9" style="text;html=1;align=center;verticalAlign=middle;whiteSpace=wrap;rounded=0;fontSize=10;" parent="og3vTp99C-auBl7smm6g-1" vertex="1">
          <mxGeometry x="380" y="230" width="40" height="20" as="geometry" />
        </mxCell>
        <mxCell id="og3vTp99C-auBl7smm6g-29" value="" style="text;html=1;align=center;verticalAlign=middle;whiteSpace=wrap;rounded=0;fillColor=#f5f5f5;strokeColor=#666666;fontSize=14;fontColor=#333333;" parent="og3vTp99C-auBl7smm6g-1" vertex="1">
          <mxGeometry x="390" y="90" width="20" height="140" as="geometry" />
        </mxCell>
        <mxCell id="og3vTp99C-auBl7smm6g-30" value="start" style="text;html=1;align=center;verticalAlign=middle;whiteSpace=wrap;rounded=0;fontSize=10;" parent="og3vTp99C-auBl7smm6g-1" vertex="1">
          <mxGeometry x="100" y="40" width="40" height="20" as="geometry" />
        </mxCell>
        <mxCell id="og3vTp99C-auBl7smm6g-31" value="end" style="text;html=1;align=center;verticalAlign=middle;whiteSpace=wrap;rounded=0;fontSize=10;" parent="og3vTp99C-auBl7smm6g-1" vertex="1">
          <mxGeometry x="340" y="40" width="40" height="20" as="geometry" />
        </mxCell>
        <mxCell id="og3vTp99C-auBl7smm6g-32" value="" style="rounded=0;whiteSpace=wrap;html=1;opacity=60;fillColor=#ffe6cc;strokeColor=#d79b00;" parent="og3vTp99C-auBl7smm6g-1" vertex="1">
          <mxGeometry x="130" y="170" width="220" height="60" as="geometry" />
        </mxCell>
        <mxCell id="og3vTp99C-auBl7smm6g-33" value="18" style="text;html=1;align=center;verticalAlign=middle;whiteSpace=wrap;rounded=0;fillColor=#ffe6cc;strokeColor=#d79b00;fontSize=14;fontColor=#333333;" parent="og3vTp99C-auBl7smm6g-1" vertex="1">
          <mxGeometry x="480" y="40" width="40" height="40" as="geometry" />
        </mxCell>
        <mxCell id="og3vTp99C-auBl7smm6g-34" value="water" style="text;html=1;align=center;verticalAlign=middle;whiteSpace=wrap;rounded=0;fontSize=10;" parent="og3vTp99C-auBl7smm6g-1" vertex="1">
          <mxGeometry x="480" y="80" width="40" height="20" as="geometry" />
        </mxCell>
        <mxCell id="6jwP64N8zJaERSmbhZ5T-0" value="49" style="text;html=1;align=center;verticalAlign=middle;whiteSpace=wrap;rounded=0;fillColor=#f5f5f5;strokeColor=#666666;fontSize=14;fontColor=#333333;" parent="og3vTp99C-auBl7smm6g-1" vertex="1">
          <mxGeometry x="480" y="120" width="40" height="40" as="geometry" />
        </mxCell>
        <mxCell id="6jwP64N8zJaERSmbhZ5T-1" value="max" style="text;html=1;align=center;verticalAlign=middle;whiteSpace=wrap;rounded=0;fontSize=10;" parent="og3vTp99C-auBl7smm6g-1" vertex="1">
          <mxGeometry x="480" y="160" width="40" height="20" as="geometry" />
        </mxCell>
        <mxCell id="AsOixs66ULh0UalWo5Fm-0" value="height" style="text;html=1;align=center;verticalAlign=middle;whiteSpace=wrap;rounded=0;fontSize=10;" vertex="1" parent="og3vTp99C-auBl7smm6g-1">
          <mxGeometry x="40" y="250" width="400" height="20" as="geometry" />
        </mxCell>
      </root>
    </mxGraphModel>
  </diagram>
  <diagram name="4" id="LGBf9oMt94nhc_-82jh0">
    <mxGraphModel dx="751" dy="1084" grid="1" gridSize="10" guides="1" tooltips="1" connect="1" arrows="1" fold="1" page="1" pageScale="1" pageWidth="560" pageHeight="310" math="0" shadow="0">
      <root>
        <mxCell id="-Us6cyAeSnRW3lyOsUR5-0" />
        <mxCell id="-Us6cyAeSnRW3lyOsUR5-1" parent="-Us6cyAeSnRW3lyOsUR5-0" />
        <mxCell id="-Us6cyAeSnRW3lyOsUR5-2" value="" style="text;html=1;align=center;verticalAlign=middle;whiteSpace=wrap;rounded=0;fillColor=#f5f5f5;strokeColor=#666666;fontSize=14;fontColor=#333333;" parent="-Us6cyAeSnRW3lyOsUR5-1" vertex="1">
          <mxGeometry x="70" y="210" width="20" height="20" as="geometry" />
        </mxCell>
        <mxCell id="-Us6cyAeSnRW3lyOsUR5-3" value="" style="endArrow=classic;startArrow=classic;html=1;rounded=0;fillColor=#f5f5f5;strokeColor=#666666;edgeStyle=orthogonalEdgeStyle;" parent="-Us6cyAeSnRW3lyOsUR5-1" edge="1">
          <mxGeometry width="50" height="50" relative="1" as="geometry">
            <mxPoint x="440" y="230" as="sourcePoint" />
            <mxPoint x="60" y="40" as="targetPoint" />
          </mxGeometry>
        </mxCell>
        <mxCell id="-Us6cyAeSnRW3lyOsUR5-4" value="5" style="text;html=1;align=center;verticalAlign=middle;whiteSpace=wrap;rounded=0;fontSize=10;" parent="-Us6cyAeSnRW3lyOsUR5-1" vertex="1">
          <mxGeometry x="40" y="120" width="20" height="20" as="geometry" />
        </mxCell>
        <mxCell id="-Us6cyAeSnRW3lyOsUR5-5" value="4" style="text;html=1;align=center;verticalAlign=middle;whiteSpace=wrap;rounded=0;fontSize=10;" parent="-Us6cyAeSnRW3lyOsUR5-1" vertex="1">
          <mxGeometry x="40" y="140" width="20" height="20" as="geometry" />
        </mxCell>
        <mxCell id="-Us6cyAeSnRW3lyOsUR5-6" value="6" style="text;html=1;align=center;verticalAlign=middle;whiteSpace=wrap;rounded=0;fontSize=10;" parent="-Us6cyAeSnRW3lyOsUR5-1" vertex="1">
          <mxGeometry x="40" y="100" width="20" height="20" as="geometry" />
        </mxCell>
        <mxCell id="-Us6cyAeSnRW3lyOsUR5-7" value="7" style="text;html=1;align=center;verticalAlign=middle;whiteSpace=wrap;rounded=0;fontSize=10;" parent="-Us6cyAeSnRW3lyOsUR5-1" vertex="1">
          <mxGeometry x="40" y="80" width="20" height="20" as="geometry" />
        </mxCell>
        <mxCell id="-Us6cyAeSnRW3lyOsUR5-8" value="8" style="text;html=1;align=center;verticalAlign=middle;whiteSpace=wrap;rounded=0;fontSize=10;" parent="-Us6cyAeSnRW3lyOsUR5-1" vertex="1">
          <mxGeometry x="40" y="60" width="20" height="20" as="geometry" />
        </mxCell>
        <mxCell id="-Us6cyAeSnRW3lyOsUR5-9" value="3" style="text;html=1;align=center;verticalAlign=middle;whiteSpace=wrap;rounded=0;fontSize=10;" parent="-Us6cyAeSnRW3lyOsUR5-1" vertex="1">
          <mxGeometry x="40" y="160" width="20" height="20" as="geometry" />
        </mxCell>
        <mxCell id="-Us6cyAeSnRW3lyOsUR5-10" value="2" style="text;html=1;align=center;verticalAlign=middle;whiteSpace=wrap;rounded=0;fontSize=10;" parent="-Us6cyAeSnRW3lyOsUR5-1" vertex="1">
          <mxGeometry x="40" y="180" width="20" height="20" as="geometry" />
        </mxCell>
        <mxCell id="-Us6cyAeSnRW3lyOsUR5-11" value="1" style="text;html=1;align=center;verticalAlign=middle;whiteSpace=wrap;rounded=0;fontSize=10;" parent="-Us6cyAeSnRW3lyOsUR5-1" vertex="1">
          <mxGeometry x="40" y="200" width="20" height="20" as="geometry" />
        </mxCell>
        <mxCell id="-Us6cyAeSnRW3lyOsUR5-12" value="0" style="text;html=1;align=center;verticalAlign=middle;whiteSpace=wrap;rounded=0;fontSize=10;" parent="-Us6cyAeSnRW3lyOsUR5-1" vertex="1">
          <mxGeometry x="40" y="230" width="20" height="20" as="geometry" />
        </mxCell>
        <mxCell id="-Us6cyAeSnRW3lyOsUR5-13" value="1" style="text;html=1;align=center;verticalAlign=middle;whiteSpace=wrap;rounded=0;fontSize=10;" parent="-Us6cyAeSnRW3lyOsUR5-1" vertex="1">
          <mxGeometry x="60" y="230" width="40" height="20" as="geometry" />
        </mxCell>
        <mxCell id="-Us6cyAeSnRW3lyOsUR5-14" value="2" style="text;html=1;align=center;verticalAlign=middle;whiteSpace=wrap;rounded=0;fontSize=10;" parent="-Us6cyAeSnRW3lyOsUR5-1" vertex="1">
          <mxGeometry x="100" y="230" width="40" height="20" as="geometry" />
        </mxCell>
        <mxCell id="-Us6cyAeSnRW3lyOsUR5-15" value="3" style="text;html=1;align=center;verticalAlign=middle;whiteSpace=wrap;rounded=0;fontSize=10;" parent="-Us6cyAeSnRW3lyOsUR5-1" vertex="1">
          <mxGeometry x="140" y="230" width="40" height="20" as="geometry" />
        </mxCell>
        <mxCell id="-Us6cyAeSnRW3lyOsUR5-16" value="4" style="text;html=1;align=center;verticalAlign=middle;whiteSpace=wrap;rounded=0;fontSize=10;" parent="-Us6cyAeSnRW3lyOsUR5-1" vertex="1">
          <mxGeometry x="180" y="230" width="40" height="20" as="geometry" />
        </mxCell>
        <mxCell id="-Us6cyAeSnRW3lyOsUR5-17" value="5" style="text;html=1;align=center;verticalAlign=middle;whiteSpace=wrap;rounded=0;fontSize=10;" parent="-Us6cyAeSnRW3lyOsUR5-1" vertex="1">
          <mxGeometry x="220" y="230" width="40" height="20" as="geometry" />
        </mxCell>
        <mxCell id="-Us6cyAeSnRW3lyOsUR5-18" value="6" style="text;html=1;align=center;verticalAlign=middle;whiteSpace=wrap;rounded=0;fontSize=10;" parent="-Us6cyAeSnRW3lyOsUR5-1" vertex="1">
          <mxGeometry x="260" y="230" width="40" height="20" as="geometry" />
        </mxCell>
        <mxCell id="-Us6cyAeSnRW3lyOsUR5-19" value="7" style="text;html=1;align=center;verticalAlign=middle;whiteSpace=wrap;rounded=0;fontSize=10;" parent="-Us6cyAeSnRW3lyOsUR5-1" vertex="1">
          <mxGeometry x="300" y="230" width="40" height="20" as="geometry" />
        </mxCell>
        <mxCell id="-Us6cyAeSnRW3lyOsUR5-20" value="8" style="text;html=1;align=center;verticalAlign=middle;whiteSpace=wrap;rounded=0;fontSize=10;" parent="-Us6cyAeSnRW3lyOsUR5-1" vertex="1">
          <mxGeometry x="340" y="230" width="40" height="20" as="geometry" />
        </mxCell>
        <mxCell id="-Us6cyAeSnRW3lyOsUR5-21" value="" style="text;html=1;align=center;verticalAlign=middle;whiteSpace=wrap;rounded=0;fillColor=#dae8fc;strokeColor=#6c8ebf;fontSize=14;" parent="-Us6cyAeSnRW3lyOsUR5-1" vertex="1">
          <mxGeometry x="110" y="70" width="20" height="160" as="geometry" />
        </mxCell>
        <mxCell id="-Us6cyAeSnRW3lyOsUR5-22" value="" style="text;html=1;align=center;verticalAlign=middle;whiteSpace=wrap;rounded=0;fillColor=#f5f5f5;strokeColor=#666666;fontSize=14;fontColor=#333333;" parent="-Us6cyAeSnRW3lyOsUR5-1" vertex="1">
          <mxGeometry x="150" y="110" width="20" height="120" as="geometry" />
        </mxCell>
        <mxCell id="-Us6cyAeSnRW3lyOsUR5-23" value="" style="text;html=1;align=center;verticalAlign=middle;whiteSpace=wrap;rounded=0;fillColor=#f5f5f5;strokeColor=#666666;fontSize=14;fontColor=#333333;" parent="-Us6cyAeSnRW3lyOsUR5-1" vertex="1">
          <mxGeometry x="190" y="190" width="20" height="40" as="geometry" />
        </mxCell>
        <mxCell id="-Us6cyAeSnRW3lyOsUR5-24" value="" style="text;html=1;align=center;verticalAlign=middle;whiteSpace=wrap;rounded=0;fillColor=#f5f5f5;strokeColor=#666666;fontSize=14;fontColor=#333333;" parent="-Us6cyAeSnRW3lyOsUR5-1" vertex="1">
          <mxGeometry x="230" y="130" width="20" height="100" as="geometry" />
        </mxCell>
        <mxCell id="-Us6cyAeSnRW3lyOsUR5-25" value="" style="text;html=1;align=center;verticalAlign=middle;whiteSpace=wrap;rounded=0;fillColor=#f5f5f5;strokeColor=#666666;fontSize=14;fontColor=#333333;" parent="-Us6cyAeSnRW3lyOsUR5-1" vertex="1">
          <mxGeometry x="270" y="150" width="20" height="80" as="geometry" />
        </mxCell>
        <mxCell id="-Us6cyAeSnRW3lyOsUR5-26" value="" style="text;html=1;align=center;verticalAlign=middle;whiteSpace=wrap;rounded=0;fillColor=#d5e8d4;strokeColor=#82b366;fontSize=14;" parent="-Us6cyAeSnRW3lyOsUR5-1" vertex="1">
          <mxGeometry x="310" y="70" width="20" height="160" as="geometry" />
        </mxCell>
        <mxCell id="-Us6cyAeSnRW3lyOsUR5-27" value="" style="text;html=1;align=center;verticalAlign=middle;whiteSpace=wrap;rounded=0;fontSize=14;fillColor=#f5f5f5;fontColor=#333333;strokeColor=#666666;" parent="-Us6cyAeSnRW3lyOsUR5-1" vertex="1">
          <mxGeometry x="350" y="170" width="20" height="60" as="geometry" />
        </mxCell>
        <mxCell id="-Us6cyAeSnRW3lyOsUR5-28" value="9" style="text;html=1;align=center;verticalAlign=middle;whiteSpace=wrap;rounded=0;fontSize=10;" parent="-Us6cyAeSnRW3lyOsUR5-1" vertex="1">
          <mxGeometry x="380" y="230" width="40" height="20" as="geometry" />
        </mxCell>
        <mxCell id="-Us6cyAeSnRW3lyOsUR5-29" value="" style="text;html=1;align=center;verticalAlign=middle;whiteSpace=wrap;rounded=0;fillColor=#f5f5f5;strokeColor=#666666;fontSize=14;fontColor=#333333;" parent="-Us6cyAeSnRW3lyOsUR5-1" vertex="1">
          <mxGeometry x="390" y="90" width="20" height="140" as="geometry" />
        </mxCell>
        <mxCell id="-Us6cyAeSnRW3lyOsUR5-30" value="start" style="text;html=1;align=center;verticalAlign=middle;whiteSpace=wrap;rounded=0;fontSize=10;" parent="-Us6cyAeSnRW3lyOsUR5-1" vertex="1">
          <mxGeometry x="100" y="40" width="40" height="20" as="geometry" />
        </mxCell>
        <mxCell id="-Us6cyAeSnRW3lyOsUR5-31" value="end" style="text;html=1;align=center;verticalAlign=middle;whiteSpace=wrap;rounded=0;fontSize=10;" parent="-Us6cyAeSnRW3lyOsUR5-1" vertex="1">
          <mxGeometry x="300" y="40" width="40" height="20" as="geometry" />
        </mxCell>
        <mxCell id="-Us6cyAeSnRW3lyOsUR5-32" value="" style="rounded=0;whiteSpace=wrap;html=1;opacity=60;fillColor=#ffe6cc;strokeColor=#d79b00;" parent="-Us6cyAeSnRW3lyOsUR5-1" vertex="1">
          <mxGeometry x="130" y="70" width="180" height="160" as="geometry" />
        </mxCell>
        <mxCell id="-Us6cyAeSnRW3lyOsUR5-33" value="40" style="text;html=1;align=center;verticalAlign=middle;whiteSpace=wrap;rounded=0;fillColor=#ffe6cc;strokeColor=#d79b00;fontSize=14;fontColor=#333333;" parent="-Us6cyAeSnRW3lyOsUR5-1" vertex="1">
          <mxGeometry x="480" y="40" width="40" height="40" as="geometry" />
        </mxCell>
        <mxCell id="-Us6cyAeSnRW3lyOsUR5-34" value="water" style="text;html=1;align=center;verticalAlign=middle;whiteSpace=wrap;rounded=0;fontSize=10;" parent="-Us6cyAeSnRW3lyOsUR5-1" vertex="1">
          <mxGeometry x="480" y="80" width="40" height="20" as="geometry" />
        </mxCell>
        <mxCell id="-Us6cyAeSnRW3lyOsUR5-35" value="49" style="text;html=1;align=center;verticalAlign=middle;whiteSpace=wrap;rounded=0;fillColor=#f5f5f5;strokeColor=#666666;fontSize=14;fontColor=#333333;" parent="-Us6cyAeSnRW3lyOsUR5-1" vertex="1">
          <mxGeometry x="480" y="120" width="40" height="40" as="geometry" />
        </mxCell>
        <mxCell id="-Us6cyAeSnRW3lyOsUR5-36" value="max" style="text;html=1;align=center;verticalAlign=middle;whiteSpace=wrap;rounded=0;fontSize=10;" parent="-Us6cyAeSnRW3lyOsUR5-1" vertex="1">
          <mxGeometry x="480" y="160" width="40" height="20" as="geometry" />
        </mxCell>
        <mxCell id="HNS2MV2yTJVWQPO6szrX-0" value="height" style="text;html=1;align=center;verticalAlign=middle;whiteSpace=wrap;rounded=0;fontSize=10;" vertex="1" parent="-Us6cyAeSnRW3lyOsUR5-1">
          <mxGeometry x="40" y="250" width="400" height="20" as="geometry" />
        </mxCell>
      </root>
    </mxGraphModel>
  </diagram>
  <diagram name="5" id="3V86GFe7URjKN5hpi6hS">
    <mxGraphModel dx="751" dy="1084" grid="1" gridSize="10" guides="1" tooltips="1" connect="1" arrows="1" fold="1" page="1" pageScale="1" pageWidth="560" pageHeight="310" math="0" shadow="0">
      <root>
        <mxCell id="Ei0wTCqXl9tBXvh3ttNn-0" />
        <mxCell id="Ei0wTCqXl9tBXvh3ttNn-1" parent="Ei0wTCqXl9tBXvh3ttNn-0" />
        <mxCell id="Ei0wTCqXl9tBXvh3ttNn-2" value="" style="text;html=1;align=center;verticalAlign=middle;whiteSpace=wrap;rounded=0;fillColor=#f5f5f5;strokeColor=#666666;fontSize=14;fontColor=#333333;" parent="Ei0wTCqXl9tBXvh3ttNn-1" vertex="1">
          <mxGeometry x="70" y="210" width="20" height="20" as="geometry" />
        </mxCell>
        <mxCell id="Ei0wTCqXl9tBXvh3ttNn-3" value="" style="endArrow=classic;startArrow=classic;html=1;rounded=0;fillColor=#f5f5f5;strokeColor=#666666;edgeStyle=orthogonalEdgeStyle;" parent="Ei0wTCqXl9tBXvh3ttNn-1" edge="1">
          <mxGeometry width="50" height="50" relative="1" as="geometry">
            <mxPoint x="440" y="230" as="sourcePoint" />
            <mxPoint x="60" y="40" as="targetPoint" />
          </mxGeometry>
        </mxCell>
        <mxCell id="Ei0wTCqXl9tBXvh3ttNn-4" value="5" style="text;html=1;align=center;verticalAlign=middle;whiteSpace=wrap;rounded=0;fontSize=10;" parent="Ei0wTCqXl9tBXvh3ttNn-1" vertex="1">
          <mxGeometry x="40" y="120" width="20" height="20" as="geometry" />
        </mxCell>
        <mxCell id="Ei0wTCqXl9tBXvh3ttNn-5" value="4" style="text;html=1;align=center;verticalAlign=middle;whiteSpace=wrap;rounded=0;fontSize=10;" parent="Ei0wTCqXl9tBXvh3ttNn-1" vertex="1">
          <mxGeometry x="40" y="140" width="20" height="20" as="geometry" />
        </mxCell>
        <mxCell id="Ei0wTCqXl9tBXvh3ttNn-6" value="6" style="text;html=1;align=center;verticalAlign=middle;whiteSpace=wrap;rounded=0;fontSize=10;" parent="Ei0wTCqXl9tBXvh3ttNn-1" vertex="1">
          <mxGeometry x="40" y="100" width="20" height="20" as="geometry" />
        </mxCell>
        <mxCell id="Ei0wTCqXl9tBXvh3ttNn-7" value="7" style="text;html=1;align=center;verticalAlign=middle;whiteSpace=wrap;rounded=0;fontSize=10;" parent="Ei0wTCqXl9tBXvh3ttNn-1" vertex="1">
          <mxGeometry x="40" y="80" width="20" height="20" as="geometry" />
        </mxCell>
        <mxCell id="Ei0wTCqXl9tBXvh3ttNn-8" value="8" style="text;html=1;align=center;verticalAlign=middle;whiteSpace=wrap;rounded=0;fontSize=10;" parent="Ei0wTCqXl9tBXvh3ttNn-1" vertex="1">
          <mxGeometry x="40" y="60" width="20" height="20" as="geometry" />
        </mxCell>
        <mxCell id="Ei0wTCqXl9tBXvh3ttNn-9" value="3" style="text;html=1;align=center;verticalAlign=middle;whiteSpace=wrap;rounded=0;fontSize=10;" parent="Ei0wTCqXl9tBXvh3ttNn-1" vertex="1">
          <mxGeometry x="40" y="160" width="20" height="20" as="geometry" />
        </mxCell>
        <mxCell id="Ei0wTCqXl9tBXvh3ttNn-10" value="2" style="text;html=1;align=center;verticalAlign=middle;whiteSpace=wrap;rounded=0;fontSize=10;" parent="Ei0wTCqXl9tBXvh3ttNn-1" vertex="1">
          <mxGeometry x="40" y="180" width="20" height="20" as="geometry" />
        </mxCell>
        <mxCell id="Ei0wTCqXl9tBXvh3ttNn-11" value="1" style="text;html=1;align=center;verticalAlign=middle;whiteSpace=wrap;rounded=0;fontSize=10;" parent="Ei0wTCqXl9tBXvh3ttNn-1" vertex="1">
          <mxGeometry x="40" y="200" width="20" height="20" as="geometry" />
        </mxCell>
        <mxCell id="Ei0wTCqXl9tBXvh3ttNn-12" value="0" style="text;html=1;align=center;verticalAlign=middle;whiteSpace=wrap;rounded=0;fontSize=10;" parent="Ei0wTCqXl9tBXvh3ttNn-1" vertex="1">
          <mxGeometry x="40" y="230" width="20" height="20" as="geometry" />
        </mxCell>
        <mxCell id="Ei0wTCqXl9tBXvh3ttNn-13" value="1" style="text;html=1;align=center;verticalAlign=middle;whiteSpace=wrap;rounded=0;fontSize=10;" parent="Ei0wTCqXl9tBXvh3ttNn-1" vertex="1">
          <mxGeometry x="60" y="230" width="40" height="20" as="geometry" />
        </mxCell>
        <mxCell id="Ei0wTCqXl9tBXvh3ttNn-14" value="2" style="text;html=1;align=center;verticalAlign=middle;whiteSpace=wrap;rounded=0;fontSize=10;" parent="Ei0wTCqXl9tBXvh3ttNn-1" vertex="1">
          <mxGeometry x="100" y="230" width="40" height="20" as="geometry" />
        </mxCell>
        <mxCell id="Ei0wTCqXl9tBXvh3ttNn-15" value="3" style="text;html=1;align=center;verticalAlign=middle;whiteSpace=wrap;rounded=0;fontSize=10;" parent="Ei0wTCqXl9tBXvh3ttNn-1" vertex="1">
          <mxGeometry x="140" y="230" width="40" height="20" as="geometry" />
        </mxCell>
        <mxCell id="Ei0wTCqXl9tBXvh3ttNn-16" value="4" style="text;html=1;align=center;verticalAlign=middle;whiteSpace=wrap;rounded=0;fontSize=10;" parent="Ei0wTCqXl9tBXvh3ttNn-1" vertex="1">
          <mxGeometry x="180" y="230" width="40" height="20" as="geometry" />
        </mxCell>
        <mxCell id="Ei0wTCqXl9tBXvh3ttNn-17" value="5" style="text;html=1;align=center;verticalAlign=middle;whiteSpace=wrap;rounded=0;fontSize=10;" parent="Ei0wTCqXl9tBXvh3ttNn-1" vertex="1">
          <mxGeometry x="220" y="230" width="40" height="20" as="geometry" />
        </mxCell>
        <mxCell id="Ei0wTCqXl9tBXvh3ttNn-18" value="6" style="text;html=1;align=center;verticalAlign=middle;whiteSpace=wrap;rounded=0;fontSize=10;" parent="Ei0wTCqXl9tBXvh3ttNn-1" vertex="1">
          <mxGeometry x="260" y="230" width="40" height="20" as="geometry" />
        </mxCell>
        <mxCell id="Ei0wTCqXl9tBXvh3ttNn-19" value="7" style="text;html=1;align=center;verticalAlign=middle;whiteSpace=wrap;rounded=0;fontSize=10;" parent="Ei0wTCqXl9tBXvh3ttNn-1" vertex="1">
          <mxGeometry x="300" y="230" width="40" height="20" as="geometry" />
        </mxCell>
        <mxCell id="Ei0wTCqXl9tBXvh3ttNn-20" value="8" style="text;html=1;align=center;verticalAlign=middle;whiteSpace=wrap;rounded=0;fontSize=10;" parent="Ei0wTCqXl9tBXvh3ttNn-1" vertex="1">
          <mxGeometry x="340" y="230" width="40" height="20" as="geometry" />
        </mxCell>
        <mxCell id="Ei0wTCqXl9tBXvh3ttNn-21" value="" style="text;html=1;align=center;verticalAlign=middle;whiteSpace=wrap;rounded=0;fillColor=#dae8fc;strokeColor=#6c8ebf;fontSize=14;" parent="Ei0wTCqXl9tBXvh3ttNn-1" vertex="1">
          <mxGeometry x="110" y="70" width="20" height="160" as="geometry" />
        </mxCell>
        <mxCell id="Ei0wTCqXl9tBXvh3ttNn-22" value="" style="text;html=1;align=center;verticalAlign=middle;whiteSpace=wrap;rounded=0;fillColor=#f5f5f5;strokeColor=#666666;fontSize=14;fontColor=#333333;" parent="Ei0wTCqXl9tBXvh3ttNn-1" vertex="1">
          <mxGeometry x="150" y="110" width="20" height="120" as="geometry" />
        </mxCell>
        <mxCell id="Ei0wTCqXl9tBXvh3ttNn-23" value="" style="text;html=1;align=center;verticalAlign=middle;whiteSpace=wrap;rounded=0;fillColor=#f5f5f5;strokeColor=#666666;fontSize=14;fontColor=#333333;" parent="Ei0wTCqXl9tBXvh3ttNn-1" vertex="1">
          <mxGeometry x="190" y="190" width="20" height="40" as="geometry" />
        </mxCell>
        <mxCell id="Ei0wTCqXl9tBXvh3ttNn-24" value="" style="text;html=1;align=center;verticalAlign=middle;whiteSpace=wrap;rounded=0;fillColor=#f5f5f5;strokeColor=#666666;fontSize=14;fontColor=#333333;" parent="Ei0wTCqXl9tBXvh3ttNn-1" vertex="1">
          <mxGeometry x="230" y="130" width="20" height="100" as="geometry" />
        </mxCell>
        <mxCell id="Ei0wTCqXl9tBXvh3ttNn-25" value="" style="text;html=1;align=center;verticalAlign=middle;whiteSpace=wrap;rounded=0;fillColor=#d5e8d4;strokeColor=#82b366;fontSize=14;" parent="Ei0wTCqXl9tBXvh3ttNn-1" vertex="1">
          <mxGeometry x="270" y="150" width="20" height="80" as="geometry" />
        </mxCell>
        <mxCell id="Ei0wTCqXl9tBXvh3ttNn-26" value="" style="text;html=1;align=center;verticalAlign=middle;whiteSpace=wrap;rounded=0;fillColor=#f5f5f5;strokeColor=#666666;fontSize=14;fontColor=#333333;" parent="Ei0wTCqXl9tBXvh3ttNn-1" vertex="1">
          <mxGeometry x="310" y="70" width="20" height="160" as="geometry" />
        </mxCell>
        <mxCell id="Ei0wTCqXl9tBXvh3ttNn-27" value="" style="text;html=1;align=center;verticalAlign=middle;whiteSpace=wrap;rounded=0;fontSize=14;fillColor=#f5f5f5;fontColor=#333333;strokeColor=#666666;" parent="Ei0wTCqXl9tBXvh3ttNn-1" vertex="1">
          <mxGeometry x="350" y="170" width="20" height="60" as="geometry" />
        </mxCell>
        <mxCell id="Ei0wTCqXl9tBXvh3ttNn-28" value="9" style="text;html=1;align=center;verticalAlign=middle;whiteSpace=wrap;rounded=0;fontSize=10;" parent="Ei0wTCqXl9tBXvh3ttNn-1" vertex="1">
          <mxGeometry x="380" y="230" width="40" height="20" as="geometry" />
        </mxCell>
        <mxCell id="Ei0wTCqXl9tBXvh3ttNn-29" value="" style="text;html=1;align=center;verticalAlign=middle;whiteSpace=wrap;rounded=0;fillColor=#f5f5f5;strokeColor=#666666;fontSize=14;fontColor=#333333;" parent="Ei0wTCqXl9tBXvh3ttNn-1" vertex="1">
          <mxGeometry x="390" y="90" width="20" height="140" as="geometry" />
        </mxCell>
        <mxCell id="Ei0wTCqXl9tBXvh3ttNn-30" value="start" style="text;html=1;align=center;verticalAlign=middle;whiteSpace=wrap;rounded=0;fontSize=10;" parent="Ei0wTCqXl9tBXvh3ttNn-1" vertex="1">
          <mxGeometry x="100" y="40" width="40" height="20" as="geometry" />
        </mxCell>
        <mxCell id="Ei0wTCqXl9tBXvh3ttNn-31" value="end" style="text;html=1;align=center;verticalAlign=middle;whiteSpace=wrap;rounded=0;fontSize=10;" parent="Ei0wTCqXl9tBXvh3ttNn-1" vertex="1">
          <mxGeometry x="260" y="40" width="40" height="20" as="geometry" />
        </mxCell>
        <mxCell id="Ei0wTCqXl9tBXvh3ttNn-32" value="" style="rounded=0;whiteSpace=wrap;html=1;opacity=60;fillColor=#ffe6cc;strokeColor=#d79b00;" parent="Ei0wTCqXl9tBXvh3ttNn-1" vertex="1">
          <mxGeometry x="130" y="150" width="140" height="80" as="geometry" />
        </mxCell>
        <mxCell id="Ei0wTCqXl9tBXvh3ttNn-33" value="16" style="text;html=1;align=center;verticalAlign=middle;whiteSpace=wrap;rounded=0;fillColor=#ffe6cc;strokeColor=#d79b00;fontSize=14;fontColor=#333333;" parent="Ei0wTCqXl9tBXvh3ttNn-1" vertex="1">
          <mxGeometry x="480" y="40" width="40" height="40" as="geometry" />
        </mxCell>
        <mxCell id="Ei0wTCqXl9tBXvh3ttNn-34" value="water" style="text;html=1;align=center;verticalAlign=middle;whiteSpace=wrap;rounded=0;fontSize=10;" parent="Ei0wTCqXl9tBXvh3ttNn-1" vertex="1">
          <mxGeometry x="480" y="80" width="40" height="20" as="geometry" />
        </mxCell>
        <mxCell id="Ei0wTCqXl9tBXvh3ttNn-35" value="49" style="text;html=1;align=center;verticalAlign=middle;whiteSpace=wrap;rounded=0;fillColor=#f5f5f5;strokeColor=#666666;fontSize=14;fontColor=#333333;" parent="Ei0wTCqXl9tBXvh3ttNn-1" vertex="1">
          <mxGeometry x="480" y="120" width="40" height="40" as="geometry" />
        </mxCell>
        <mxCell id="Ei0wTCqXl9tBXvh3ttNn-36" value="max" style="text;html=1;align=center;verticalAlign=middle;whiteSpace=wrap;rounded=0;fontSize=10;" parent="Ei0wTCqXl9tBXvh3ttNn-1" vertex="1">
          <mxGeometry x="480" y="160" width="40" height="20" as="geometry" />
        </mxCell>
        <mxCell id="tV7EmKvpjH3btSMrdYUy-0" value="height" style="text;html=1;align=center;verticalAlign=middle;whiteSpace=wrap;rounded=0;fontSize=10;" vertex="1" parent="Ei0wTCqXl9tBXvh3ttNn-1">
          <mxGeometry x="40" y="250" width="400" height="20" as="geometry" />
        </mxCell>
      </root>
    </mxGraphModel>
  </diagram>
  <diagram name="6" id="iMBiHF7RJY5eazSlByK0">
    <mxGraphModel dx="751" dy="1084" grid="1" gridSize="10" guides="1" tooltips="1" connect="1" arrows="1" fold="1" page="1" pageScale="1" pageWidth="560" pageHeight="310" math="0" shadow="0">
      <root>
        <mxCell id="TxZMIxRpwNt5AFez2NU0-0" />
        <mxCell id="TxZMIxRpwNt5AFez2NU0-1" parent="TxZMIxRpwNt5AFez2NU0-0" />
        <mxCell id="TxZMIxRpwNt5AFez2NU0-2" value="" style="text;html=1;align=center;verticalAlign=middle;whiteSpace=wrap;rounded=0;fillColor=#f5f5f5;strokeColor=#666666;fontSize=14;fontColor=#333333;" parent="TxZMIxRpwNt5AFez2NU0-1" vertex="1">
          <mxGeometry x="70" y="210" width="20" height="20" as="geometry" />
        </mxCell>
        <mxCell id="TxZMIxRpwNt5AFez2NU0-3" value="" style="endArrow=classic;startArrow=classic;html=1;rounded=0;fillColor=#f5f5f5;strokeColor=#666666;edgeStyle=orthogonalEdgeStyle;" parent="TxZMIxRpwNt5AFez2NU0-1" edge="1">
          <mxGeometry width="50" height="50" relative="1" as="geometry">
            <mxPoint x="440" y="230" as="sourcePoint" />
            <mxPoint x="60" y="40" as="targetPoint" />
          </mxGeometry>
        </mxCell>
        <mxCell id="TxZMIxRpwNt5AFez2NU0-4" value="5" style="text;html=1;align=center;verticalAlign=middle;whiteSpace=wrap;rounded=0;fontSize=10;" parent="TxZMIxRpwNt5AFez2NU0-1" vertex="1">
          <mxGeometry x="40" y="120" width="20" height="20" as="geometry" />
        </mxCell>
        <mxCell id="TxZMIxRpwNt5AFez2NU0-5" value="4" style="text;html=1;align=center;verticalAlign=middle;whiteSpace=wrap;rounded=0;fontSize=10;" parent="TxZMIxRpwNt5AFez2NU0-1" vertex="1">
          <mxGeometry x="40" y="140" width="20" height="20" as="geometry" />
        </mxCell>
        <mxCell id="TxZMIxRpwNt5AFez2NU0-6" value="6" style="text;html=1;align=center;verticalAlign=middle;whiteSpace=wrap;rounded=0;fontSize=10;" parent="TxZMIxRpwNt5AFez2NU0-1" vertex="1">
          <mxGeometry x="40" y="100" width="20" height="20" as="geometry" />
        </mxCell>
        <mxCell id="TxZMIxRpwNt5AFez2NU0-7" value="7" style="text;html=1;align=center;verticalAlign=middle;whiteSpace=wrap;rounded=0;fontSize=10;" parent="TxZMIxRpwNt5AFez2NU0-1" vertex="1">
          <mxGeometry x="40" y="80" width="20" height="20" as="geometry" />
        </mxCell>
        <mxCell id="TxZMIxRpwNt5AFez2NU0-8" value="8" style="text;html=1;align=center;verticalAlign=middle;whiteSpace=wrap;rounded=0;fontSize=10;" parent="TxZMIxRpwNt5AFez2NU0-1" vertex="1">
          <mxGeometry x="40" y="60" width="20" height="20" as="geometry" />
        </mxCell>
        <mxCell id="TxZMIxRpwNt5AFez2NU0-9" value="3" style="text;html=1;align=center;verticalAlign=middle;whiteSpace=wrap;rounded=0;fontSize=10;" parent="TxZMIxRpwNt5AFez2NU0-1" vertex="1">
          <mxGeometry x="40" y="160" width="20" height="20" as="geometry" />
        </mxCell>
        <mxCell id="TxZMIxRpwNt5AFez2NU0-10" value="2" style="text;html=1;align=center;verticalAlign=middle;whiteSpace=wrap;rounded=0;fontSize=10;" parent="TxZMIxRpwNt5AFez2NU0-1" vertex="1">
          <mxGeometry x="40" y="180" width="20" height="20" as="geometry" />
        </mxCell>
        <mxCell id="TxZMIxRpwNt5AFez2NU0-11" value="1" style="text;html=1;align=center;verticalAlign=middle;whiteSpace=wrap;rounded=0;fontSize=10;" parent="TxZMIxRpwNt5AFez2NU0-1" vertex="1">
          <mxGeometry x="40" y="200" width="20" height="20" as="geometry" />
        </mxCell>
        <mxCell id="TxZMIxRpwNt5AFez2NU0-12" value="0" style="text;html=1;align=center;verticalAlign=middle;whiteSpace=wrap;rounded=0;fontSize=10;" parent="TxZMIxRpwNt5AFez2NU0-1" vertex="1">
          <mxGeometry x="40" y="230" width="20" height="20" as="geometry" />
        </mxCell>
        <mxCell id="TxZMIxRpwNt5AFez2NU0-13" value="1" style="text;html=1;align=center;verticalAlign=middle;whiteSpace=wrap;rounded=0;fontSize=10;" parent="TxZMIxRpwNt5AFez2NU0-1" vertex="1">
          <mxGeometry x="60" y="230" width="40" height="20" as="geometry" />
        </mxCell>
        <mxCell id="TxZMIxRpwNt5AFez2NU0-14" value="2" style="text;html=1;align=center;verticalAlign=middle;whiteSpace=wrap;rounded=0;fontSize=10;" parent="TxZMIxRpwNt5AFez2NU0-1" vertex="1">
          <mxGeometry x="100" y="230" width="40" height="20" as="geometry" />
        </mxCell>
        <mxCell id="TxZMIxRpwNt5AFez2NU0-15" value="3" style="text;html=1;align=center;verticalAlign=middle;whiteSpace=wrap;rounded=0;fontSize=10;" parent="TxZMIxRpwNt5AFez2NU0-1" vertex="1">
          <mxGeometry x="140" y="230" width="40" height="20" as="geometry" />
        </mxCell>
        <mxCell id="TxZMIxRpwNt5AFez2NU0-16" value="4" style="text;html=1;align=center;verticalAlign=middle;whiteSpace=wrap;rounded=0;fontSize=10;" parent="TxZMIxRpwNt5AFez2NU0-1" vertex="1">
          <mxGeometry x="180" y="230" width="40" height="20" as="geometry" />
        </mxCell>
        <mxCell id="TxZMIxRpwNt5AFez2NU0-17" value="5" style="text;html=1;align=center;verticalAlign=middle;whiteSpace=wrap;rounded=0;fontSize=10;" parent="TxZMIxRpwNt5AFez2NU0-1" vertex="1">
          <mxGeometry x="220" y="230" width="40" height="20" as="geometry" />
        </mxCell>
        <mxCell id="TxZMIxRpwNt5AFez2NU0-18" value="6" style="text;html=1;align=center;verticalAlign=middle;whiteSpace=wrap;rounded=0;fontSize=10;" parent="TxZMIxRpwNt5AFez2NU0-1" vertex="1">
          <mxGeometry x="260" y="230" width="40" height="20" as="geometry" />
        </mxCell>
        <mxCell id="TxZMIxRpwNt5AFez2NU0-19" value="7" style="text;html=1;align=center;verticalAlign=middle;whiteSpace=wrap;rounded=0;fontSize=10;" parent="TxZMIxRpwNt5AFez2NU0-1" vertex="1">
          <mxGeometry x="300" y="230" width="40" height="20" as="geometry" />
        </mxCell>
        <mxCell id="TxZMIxRpwNt5AFez2NU0-20" value="8" style="text;html=1;align=center;verticalAlign=middle;whiteSpace=wrap;rounded=0;fontSize=10;" parent="TxZMIxRpwNt5AFez2NU0-1" vertex="1">
          <mxGeometry x="340" y="230" width="40" height="20" as="geometry" />
        </mxCell>
        <mxCell id="TxZMIxRpwNt5AFez2NU0-21" value="" style="text;html=1;align=center;verticalAlign=middle;whiteSpace=wrap;rounded=0;fillColor=#dae8fc;strokeColor=#6c8ebf;fontSize=14;" parent="TxZMIxRpwNt5AFez2NU0-1" vertex="1">
          <mxGeometry x="110" y="70" width="20" height="160" as="geometry" />
        </mxCell>
        <mxCell id="TxZMIxRpwNt5AFez2NU0-22" value="" style="text;html=1;align=center;verticalAlign=middle;whiteSpace=wrap;rounded=0;fillColor=#f5f5f5;strokeColor=#666666;fontSize=14;fontColor=#333333;" parent="TxZMIxRpwNt5AFez2NU0-1" vertex="1">
          <mxGeometry x="150" y="110" width="20" height="120" as="geometry" />
        </mxCell>
        <mxCell id="TxZMIxRpwNt5AFez2NU0-23" value="" style="text;html=1;align=center;verticalAlign=middle;whiteSpace=wrap;rounded=0;fillColor=#f5f5f5;strokeColor=#666666;fontSize=14;fontColor=#333333;" parent="TxZMIxRpwNt5AFez2NU0-1" vertex="1">
          <mxGeometry x="190" y="190" width="20" height="40" as="geometry" />
        </mxCell>
        <mxCell id="TxZMIxRpwNt5AFez2NU0-24" value="" style="text;html=1;align=center;verticalAlign=middle;whiteSpace=wrap;rounded=0;fillColor=#d5e8d4;strokeColor=#82b366;fontSize=14;" parent="TxZMIxRpwNt5AFez2NU0-1" vertex="1">
          <mxGeometry x="230" y="130" width="20" height="100" as="geometry" />
        </mxCell>
        <mxCell id="TxZMIxRpwNt5AFez2NU0-25" value="" style="text;html=1;align=center;verticalAlign=middle;whiteSpace=wrap;rounded=0;fillColor=#f5f5f5;strokeColor=#666666;fontSize=14;fontColor=#333333;" parent="TxZMIxRpwNt5AFez2NU0-1" vertex="1">
          <mxGeometry x="270" y="150" width="20" height="80" as="geometry" />
        </mxCell>
        <mxCell id="TxZMIxRpwNt5AFez2NU0-26" value="" style="text;html=1;align=center;verticalAlign=middle;whiteSpace=wrap;rounded=0;fillColor=#f5f5f5;strokeColor=#666666;fontSize=14;fontColor=#333333;" parent="TxZMIxRpwNt5AFez2NU0-1" vertex="1">
          <mxGeometry x="310" y="70" width="20" height="160" as="geometry" />
        </mxCell>
        <mxCell id="TxZMIxRpwNt5AFez2NU0-27" value="" style="text;html=1;align=center;verticalAlign=middle;whiteSpace=wrap;rounded=0;fontSize=14;fillColor=#f5f5f5;fontColor=#333333;strokeColor=#666666;" parent="TxZMIxRpwNt5AFez2NU0-1" vertex="1">
          <mxGeometry x="350" y="170" width="20" height="60" as="geometry" />
        </mxCell>
        <mxCell id="TxZMIxRpwNt5AFez2NU0-28" value="9" style="text;html=1;align=center;verticalAlign=middle;whiteSpace=wrap;rounded=0;fontSize=10;" parent="TxZMIxRpwNt5AFez2NU0-1" vertex="1">
          <mxGeometry x="380" y="230" width="40" height="20" as="geometry" />
        </mxCell>
        <mxCell id="TxZMIxRpwNt5AFez2NU0-29" value="" style="text;html=1;align=center;verticalAlign=middle;whiteSpace=wrap;rounded=0;fillColor=#f5f5f5;strokeColor=#666666;fontSize=14;fontColor=#333333;" parent="TxZMIxRpwNt5AFez2NU0-1" vertex="1">
          <mxGeometry x="390" y="90" width="20" height="140" as="geometry" />
        </mxCell>
        <mxCell id="TxZMIxRpwNt5AFez2NU0-30" value="start" style="text;html=1;align=center;verticalAlign=middle;whiteSpace=wrap;rounded=0;fontSize=10;" parent="TxZMIxRpwNt5AFez2NU0-1" vertex="1">
          <mxGeometry x="100" y="40" width="40" height="20" as="geometry" />
        </mxCell>
        <mxCell id="TxZMIxRpwNt5AFez2NU0-31" value="end" style="text;html=1;align=center;verticalAlign=middle;whiteSpace=wrap;rounded=0;fontSize=10;" parent="TxZMIxRpwNt5AFez2NU0-1" vertex="1">
          <mxGeometry x="220" y="40" width="40" height="20" as="geometry" />
        </mxCell>
        <mxCell id="TxZMIxRpwNt5AFez2NU0-32" value="" style="rounded=0;whiteSpace=wrap;html=1;opacity=60;fillColor=#ffe6cc;strokeColor=#d79b00;" parent="TxZMIxRpwNt5AFez2NU0-1" vertex="1">
          <mxGeometry x="130" y="130" width="100" height="100" as="geometry" />
        </mxCell>
        <mxCell id="TxZMIxRpwNt5AFez2NU0-33" value="15" style="text;html=1;align=center;verticalAlign=middle;whiteSpace=wrap;rounded=0;fillColor=#ffe6cc;strokeColor=#d79b00;fontSize=14;fontColor=#333333;" parent="TxZMIxRpwNt5AFez2NU0-1" vertex="1">
          <mxGeometry x="480" y="40" width="40" height="40" as="geometry" />
        </mxCell>
        <mxCell id="TxZMIxRpwNt5AFez2NU0-34" value="water" style="text;html=1;align=center;verticalAlign=middle;whiteSpace=wrap;rounded=0;fontSize=10;" parent="TxZMIxRpwNt5AFez2NU0-1" vertex="1">
          <mxGeometry x="480" y="80" width="40" height="20" as="geometry" />
        </mxCell>
        <mxCell id="TxZMIxRpwNt5AFez2NU0-35" value="49" style="text;html=1;align=center;verticalAlign=middle;whiteSpace=wrap;rounded=0;fillColor=#f5f5f5;strokeColor=#666666;fontSize=14;fontColor=#333333;" parent="TxZMIxRpwNt5AFez2NU0-1" vertex="1">
          <mxGeometry x="480" y="120" width="40" height="40" as="geometry" />
        </mxCell>
        <mxCell id="TxZMIxRpwNt5AFez2NU0-36" value="max" style="text;html=1;align=center;verticalAlign=middle;whiteSpace=wrap;rounded=0;fontSize=10;" parent="TxZMIxRpwNt5AFez2NU0-1" vertex="1">
          <mxGeometry x="480" y="160" width="40" height="20" as="geometry" />
        </mxCell>
        <mxCell id="HrJHLIeLc-Q9wJqLndzS-0" value="height" style="text;html=1;align=center;verticalAlign=middle;whiteSpace=wrap;rounded=0;fontSize=10;" vertex="1" parent="TxZMIxRpwNt5AFez2NU0-1">
          <mxGeometry x="40" y="250" width="400" height="20" as="geometry" />
        </mxCell>
      </root>
    </mxGraphModel>
  </diagram>
  <diagram name="7" id="2ThqJYt-U7CZX08p7NAn">
    <mxGraphModel dx="751" dy="1084" grid="1" gridSize="10" guides="1" tooltips="1" connect="1" arrows="1" fold="1" page="1" pageScale="1" pageWidth="560" pageHeight="310" math="0" shadow="0">
      <root>
        <mxCell id="1sf7fbkMttGSR2tA4H0k-0" />
        <mxCell id="1sf7fbkMttGSR2tA4H0k-1" parent="1sf7fbkMttGSR2tA4H0k-0" />
        <mxCell id="1sf7fbkMttGSR2tA4H0k-2" value="" style="text;html=1;align=center;verticalAlign=middle;whiteSpace=wrap;rounded=0;fillColor=#f5f5f5;strokeColor=#666666;fontSize=14;fontColor=#333333;" parent="1sf7fbkMttGSR2tA4H0k-1" vertex="1">
          <mxGeometry x="70" y="210" width="20" height="20" as="geometry" />
        </mxCell>
        <mxCell id="1sf7fbkMttGSR2tA4H0k-3" value="" style="endArrow=classic;startArrow=classic;html=1;rounded=0;fillColor=#f5f5f5;strokeColor=#666666;edgeStyle=orthogonalEdgeStyle;" parent="1sf7fbkMttGSR2tA4H0k-1" edge="1">
          <mxGeometry width="50" height="50" relative="1" as="geometry">
            <mxPoint x="440" y="230" as="sourcePoint" />
            <mxPoint x="60" y="40" as="targetPoint" />
          </mxGeometry>
        </mxCell>
        <mxCell id="1sf7fbkMttGSR2tA4H0k-4" value="5" style="text;html=1;align=center;verticalAlign=middle;whiteSpace=wrap;rounded=0;fontSize=10;" parent="1sf7fbkMttGSR2tA4H0k-1" vertex="1">
          <mxGeometry x="40" y="120" width="20" height="20" as="geometry" />
        </mxCell>
        <mxCell id="1sf7fbkMttGSR2tA4H0k-5" value="4" style="text;html=1;align=center;verticalAlign=middle;whiteSpace=wrap;rounded=0;fontSize=10;" parent="1sf7fbkMttGSR2tA4H0k-1" vertex="1">
          <mxGeometry x="40" y="140" width="20" height="20" as="geometry" />
        </mxCell>
        <mxCell id="1sf7fbkMttGSR2tA4H0k-6" value="6" style="text;html=1;align=center;verticalAlign=middle;whiteSpace=wrap;rounded=0;fontSize=10;" parent="1sf7fbkMttGSR2tA4H0k-1" vertex="1">
          <mxGeometry x="40" y="100" width="20" height="20" as="geometry" />
        </mxCell>
        <mxCell id="1sf7fbkMttGSR2tA4H0k-7" value="7" style="text;html=1;align=center;verticalAlign=middle;whiteSpace=wrap;rounded=0;fontSize=10;" parent="1sf7fbkMttGSR2tA4H0k-1" vertex="1">
          <mxGeometry x="40" y="80" width="20" height="20" as="geometry" />
        </mxCell>
        <mxCell id="1sf7fbkMttGSR2tA4H0k-8" value="8" style="text;html=1;align=center;verticalAlign=middle;whiteSpace=wrap;rounded=0;fontSize=10;" parent="1sf7fbkMttGSR2tA4H0k-1" vertex="1">
          <mxGeometry x="40" y="60" width="20" height="20" as="geometry" />
        </mxCell>
        <mxCell id="1sf7fbkMttGSR2tA4H0k-9" value="3" style="text;html=1;align=center;verticalAlign=middle;whiteSpace=wrap;rounded=0;fontSize=10;" parent="1sf7fbkMttGSR2tA4H0k-1" vertex="1">
          <mxGeometry x="40" y="160" width="20" height="20" as="geometry" />
        </mxCell>
        <mxCell id="1sf7fbkMttGSR2tA4H0k-10" value="2" style="text;html=1;align=center;verticalAlign=middle;whiteSpace=wrap;rounded=0;fontSize=10;" parent="1sf7fbkMttGSR2tA4H0k-1" vertex="1">
          <mxGeometry x="40" y="180" width="20" height="20" as="geometry" />
        </mxCell>
        <mxCell id="1sf7fbkMttGSR2tA4H0k-11" value="1" style="text;html=1;align=center;verticalAlign=middle;whiteSpace=wrap;rounded=0;fontSize=10;" parent="1sf7fbkMttGSR2tA4H0k-1" vertex="1">
          <mxGeometry x="40" y="200" width="20" height="20" as="geometry" />
        </mxCell>
        <mxCell id="1sf7fbkMttGSR2tA4H0k-12" value="0" style="text;html=1;align=center;verticalAlign=middle;whiteSpace=wrap;rounded=0;fontSize=10;" parent="1sf7fbkMttGSR2tA4H0k-1" vertex="1">
          <mxGeometry x="40" y="230" width="20" height="20" as="geometry" />
        </mxCell>
        <mxCell id="1sf7fbkMttGSR2tA4H0k-13" value="1" style="text;html=1;align=center;verticalAlign=middle;whiteSpace=wrap;rounded=0;fontSize=10;" parent="1sf7fbkMttGSR2tA4H0k-1" vertex="1">
          <mxGeometry x="60" y="230" width="40" height="20" as="geometry" />
        </mxCell>
        <mxCell id="1sf7fbkMttGSR2tA4H0k-14" value="2" style="text;html=1;align=center;verticalAlign=middle;whiteSpace=wrap;rounded=0;fontSize=10;" parent="1sf7fbkMttGSR2tA4H0k-1" vertex="1">
          <mxGeometry x="100" y="230" width="40" height="20" as="geometry" />
        </mxCell>
        <mxCell id="1sf7fbkMttGSR2tA4H0k-15" value="3" style="text;html=1;align=center;verticalAlign=middle;whiteSpace=wrap;rounded=0;fontSize=10;" parent="1sf7fbkMttGSR2tA4H0k-1" vertex="1">
          <mxGeometry x="140" y="230" width="40" height="20" as="geometry" />
        </mxCell>
        <mxCell id="1sf7fbkMttGSR2tA4H0k-16" value="4" style="text;html=1;align=center;verticalAlign=middle;whiteSpace=wrap;rounded=0;fontSize=10;" parent="1sf7fbkMttGSR2tA4H0k-1" vertex="1">
          <mxGeometry x="180" y="230" width="40" height="20" as="geometry" />
        </mxCell>
        <mxCell id="1sf7fbkMttGSR2tA4H0k-17" value="5" style="text;html=1;align=center;verticalAlign=middle;whiteSpace=wrap;rounded=0;fontSize=10;" parent="1sf7fbkMttGSR2tA4H0k-1" vertex="1">
          <mxGeometry x="220" y="230" width="40" height="20" as="geometry" />
        </mxCell>
        <mxCell id="1sf7fbkMttGSR2tA4H0k-18" value="6" style="text;html=1;align=center;verticalAlign=middle;whiteSpace=wrap;rounded=0;fontSize=10;" parent="1sf7fbkMttGSR2tA4H0k-1" vertex="1">
          <mxGeometry x="260" y="230" width="40" height="20" as="geometry" />
        </mxCell>
        <mxCell id="1sf7fbkMttGSR2tA4H0k-19" value="7" style="text;html=1;align=center;verticalAlign=middle;whiteSpace=wrap;rounded=0;fontSize=10;" parent="1sf7fbkMttGSR2tA4H0k-1" vertex="1">
          <mxGeometry x="300" y="230" width="40" height="20" as="geometry" />
        </mxCell>
        <mxCell id="1sf7fbkMttGSR2tA4H0k-20" value="8" style="text;html=1;align=center;verticalAlign=middle;whiteSpace=wrap;rounded=0;fontSize=10;" parent="1sf7fbkMttGSR2tA4H0k-1" vertex="1">
          <mxGeometry x="340" y="230" width="40" height="20" as="geometry" />
        </mxCell>
        <mxCell id="1sf7fbkMttGSR2tA4H0k-21" value="" style="text;html=1;align=center;verticalAlign=middle;whiteSpace=wrap;rounded=0;fillColor=#dae8fc;strokeColor=#6c8ebf;fontSize=14;" parent="1sf7fbkMttGSR2tA4H0k-1" vertex="1">
          <mxGeometry x="110" y="70" width="20" height="160" as="geometry" />
        </mxCell>
        <mxCell id="1sf7fbkMttGSR2tA4H0k-22" value="" style="text;html=1;align=center;verticalAlign=middle;whiteSpace=wrap;rounded=0;fillColor=#f5f5f5;strokeColor=#666666;fontSize=14;fontColor=#333333;" parent="1sf7fbkMttGSR2tA4H0k-1" vertex="1">
          <mxGeometry x="150" y="110" width="20" height="120" as="geometry" />
        </mxCell>
        <mxCell id="1sf7fbkMttGSR2tA4H0k-23" value="" style="text;html=1;align=center;verticalAlign=middle;whiteSpace=wrap;rounded=0;fillColor=#d5e8d4;strokeColor=#82b366;fontSize=14;" parent="1sf7fbkMttGSR2tA4H0k-1" vertex="1">
          <mxGeometry x="190" y="190" width="20" height="40" as="geometry" />
        </mxCell>
        <mxCell id="1sf7fbkMttGSR2tA4H0k-24" value="" style="text;html=1;align=center;verticalAlign=middle;whiteSpace=wrap;rounded=0;fillColor=#f5f5f5;strokeColor=#666666;fontSize=14;fontColor=#333333;" parent="1sf7fbkMttGSR2tA4H0k-1" vertex="1">
          <mxGeometry x="230" y="130" width="20" height="100" as="geometry" />
        </mxCell>
        <mxCell id="1sf7fbkMttGSR2tA4H0k-25" value="" style="text;html=1;align=center;verticalAlign=middle;whiteSpace=wrap;rounded=0;fillColor=#f5f5f5;strokeColor=#666666;fontSize=14;fontColor=#333333;" parent="1sf7fbkMttGSR2tA4H0k-1" vertex="1">
          <mxGeometry x="270" y="150" width="20" height="80" as="geometry" />
        </mxCell>
        <mxCell id="1sf7fbkMttGSR2tA4H0k-26" value="" style="text;html=1;align=center;verticalAlign=middle;whiteSpace=wrap;rounded=0;fillColor=#f5f5f5;strokeColor=#666666;fontSize=14;fontColor=#333333;" parent="1sf7fbkMttGSR2tA4H0k-1" vertex="1">
          <mxGeometry x="310" y="70" width="20" height="160" as="geometry" />
        </mxCell>
        <mxCell id="1sf7fbkMttGSR2tA4H0k-27" value="" style="text;html=1;align=center;verticalAlign=middle;whiteSpace=wrap;rounded=0;fontSize=14;fillColor=#f5f5f5;fontColor=#333333;strokeColor=#666666;" parent="1sf7fbkMttGSR2tA4H0k-1" vertex="1">
          <mxGeometry x="350" y="170" width="20" height="60" as="geometry" />
        </mxCell>
        <mxCell id="1sf7fbkMttGSR2tA4H0k-28" value="9" style="text;html=1;align=center;verticalAlign=middle;whiteSpace=wrap;rounded=0;fontSize=10;" parent="1sf7fbkMttGSR2tA4H0k-1" vertex="1">
          <mxGeometry x="380" y="230" width="40" height="20" as="geometry" />
        </mxCell>
        <mxCell id="1sf7fbkMttGSR2tA4H0k-29" value="" style="text;html=1;align=center;verticalAlign=middle;whiteSpace=wrap;rounded=0;fillColor=#f5f5f5;strokeColor=#666666;fontSize=14;fontColor=#333333;" parent="1sf7fbkMttGSR2tA4H0k-1" vertex="1">
          <mxGeometry x="390" y="90" width="20" height="140" as="geometry" />
        </mxCell>
        <mxCell id="1sf7fbkMttGSR2tA4H0k-30" value="start" style="text;html=1;align=center;verticalAlign=middle;whiteSpace=wrap;rounded=0;fontSize=10;" parent="1sf7fbkMttGSR2tA4H0k-1" vertex="1">
          <mxGeometry x="100" y="40" width="40" height="20" as="geometry" />
        </mxCell>
        <mxCell id="1sf7fbkMttGSR2tA4H0k-31" value="end" style="text;html=1;align=center;verticalAlign=middle;whiteSpace=wrap;rounded=0;fontSize=10;" parent="1sf7fbkMttGSR2tA4H0k-1" vertex="1">
          <mxGeometry x="180" y="40" width="40" height="20" as="geometry" />
        </mxCell>
        <mxCell id="1sf7fbkMttGSR2tA4H0k-32" value="" style="rounded=0;whiteSpace=wrap;html=1;opacity=60;fillColor=#ffe6cc;strokeColor=#d79b00;" parent="1sf7fbkMttGSR2tA4H0k-1" vertex="1">
          <mxGeometry x="130" y="190" width="60" height="40" as="geometry" />
        </mxCell>
        <mxCell id="1sf7fbkMttGSR2tA4H0k-33" value="4" style="text;html=1;align=center;verticalAlign=middle;whiteSpace=wrap;rounded=0;fillColor=#ffe6cc;strokeColor=#d79b00;fontSize=14;fontColor=#333333;" parent="1sf7fbkMttGSR2tA4H0k-1" vertex="1">
          <mxGeometry x="480" y="40" width="40" height="40" as="geometry" />
        </mxCell>
        <mxCell id="1sf7fbkMttGSR2tA4H0k-34" value="water" style="text;html=1;align=center;verticalAlign=middle;whiteSpace=wrap;rounded=0;fontSize=10;" parent="1sf7fbkMttGSR2tA4H0k-1" vertex="1">
          <mxGeometry x="480" y="80" width="40" height="20" as="geometry" />
        </mxCell>
        <mxCell id="1sf7fbkMttGSR2tA4H0k-35" value="49" style="text;html=1;align=center;verticalAlign=middle;whiteSpace=wrap;rounded=0;fillColor=#f5f5f5;strokeColor=#666666;fontSize=14;fontColor=#333333;" parent="1sf7fbkMttGSR2tA4H0k-1" vertex="1">
          <mxGeometry x="480" y="120" width="40" height="40" as="geometry" />
        </mxCell>
        <mxCell id="1sf7fbkMttGSR2tA4H0k-36" value="max" style="text;html=1;align=center;verticalAlign=middle;whiteSpace=wrap;rounded=0;fontSize=10;" parent="1sf7fbkMttGSR2tA4H0k-1" vertex="1">
          <mxGeometry x="480" y="160" width="40" height="20" as="geometry" />
        </mxCell>
        <mxCell id="VuAUvBK5SRpUaEuxQ8aa-0" value="height" style="text;html=1;align=center;verticalAlign=middle;whiteSpace=wrap;rounded=0;fontSize=10;" vertex="1" parent="1sf7fbkMttGSR2tA4H0k-1">
          <mxGeometry x="40" y="250" width="400" height="20" as="geometry" />
        </mxCell>
      </root>
    </mxGraphModel>
  </diagram>
  <diagram name="8" id="pLtEuVAExAJH2-S4CyMq">
    <mxGraphModel dx="751" dy="1084" grid="1" gridSize="10" guides="1" tooltips="1" connect="1" arrows="1" fold="1" page="1" pageScale="1" pageWidth="560" pageHeight="310" math="0" shadow="0">
      <root>
        <mxCell id="2F78YByumwkLW7142CHS-0" />
        <mxCell id="2F78YByumwkLW7142CHS-1" parent="2F78YByumwkLW7142CHS-0" />
        <mxCell id="2F78YByumwkLW7142CHS-2" value="" style="text;html=1;align=center;verticalAlign=middle;whiteSpace=wrap;rounded=0;fillColor=#f5f5f5;strokeColor=#666666;fontSize=14;fontColor=#333333;" parent="2F78YByumwkLW7142CHS-1" vertex="1">
          <mxGeometry x="70" y="210" width="20" height="20" as="geometry" />
        </mxCell>
        <mxCell id="2F78YByumwkLW7142CHS-3" value="" style="endArrow=classic;startArrow=classic;html=1;rounded=0;fillColor=#f5f5f5;strokeColor=#666666;edgeStyle=orthogonalEdgeStyle;" parent="2F78YByumwkLW7142CHS-1" edge="1">
          <mxGeometry width="50" height="50" relative="1" as="geometry">
            <mxPoint x="440" y="230" as="sourcePoint" />
            <mxPoint x="60" y="40" as="targetPoint" />
          </mxGeometry>
        </mxCell>
        <mxCell id="2F78YByumwkLW7142CHS-4" value="5" style="text;html=1;align=center;verticalAlign=middle;whiteSpace=wrap;rounded=0;fontSize=10;" parent="2F78YByumwkLW7142CHS-1" vertex="1">
          <mxGeometry x="40" y="120" width="20" height="20" as="geometry" />
        </mxCell>
        <mxCell id="2F78YByumwkLW7142CHS-5" value="4" style="text;html=1;align=center;verticalAlign=middle;whiteSpace=wrap;rounded=0;fontSize=10;" parent="2F78YByumwkLW7142CHS-1" vertex="1">
          <mxGeometry x="40" y="140" width="20" height="20" as="geometry" />
        </mxCell>
        <mxCell id="2F78YByumwkLW7142CHS-6" value="6" style="text;html=1;align=center;verticalAlign=middle;whiteSpace=wrap;rounded=0;fontSize=10;" parent="2F78YByumwkLW7142CHS-1" vertex="1">
          <mxGeometry x="40" y="100" width="20" height="20" as="geometry" />
        </mxCell>
        <mxCell id="2F78YByumwkLW7142CHS-7" value="7" style="text;html=1;align=center;verticalAlign=middle;whiteSpace=wrap;rounded=0;fontSize=10;" parent="2F78YByumwkLW7142CHS-1" vertex="1">
          <mxGeometry x="40" y="80" width="20" height="20" as="geometry" />
        </mxCell>
        <mxCell id="2F78YByumwkLW7142CHS-8" value="8" style="text;html=1;align=center;verticalAlign=middle;whiteSpace=wrap;rounded=0;fontSize=10;" parent="2F78YByumwkLW7142CHS-1" vertex="1">
          <mxGeometry x="40" y="60" width="20" height="20" as="geometry" />
        </mxCell>
        <mxCell id="2F78YByumwkLW7142CHS-9" value="3" style="text;html=1;align=center;verticalAlign=middle;whiteSpace=wrap;rounded=0;fontSize=10;" parent="2F78YByumwkLW7142CHS-1" vertex="1">
          <mxGeometry x="40" y="160" width="20" height="20" as="geometry" />
        </mxCell>
        <mxCell id="2F78YByumwkLW7142CHS-10" value="2" style="text;html=1;align=center;verticalAlign=middle;whiteSpace=wrap;rounded=0;fontSize=10;" parent="2F78YByumwkLW7142CHS-1" vertex="1">
          <mxGeometry x="40" y="180" width="20" height="20" as="geometry" />
        </mxCell>
        <mxCell id="2F78YByumwkLW7142CHS-11" value="1" style="text;html=1;align=center;verticalAlign=middle;whiteSpace=wrap;rounded=0;fontSize=10;" parent="2F78YByumwkLW7142CHS-1" vertex="1">
          <mxGeometry x="40" y="200" width="20" height="20" as="geometry" />
        </mxCell>
        <mxCell id="2F78YByumwkLW7142CHS-12" value="0" style="text;html=1;align=center;verticalAlign=middle;whiteSpace=wrap;rounded=0;fontSize=10;" parent="2F78YByumwkLW7142CHS-1" vertex="1">
          <mxGeometry x="40" y="230" width="20" height="20" as="geometry" />
        </mxCell>
        <mxCell id="2F78YByumwkLW7142CHS-13" value="1" style="text;html=1;align=center;verticalAlign=middle;whiteSpace=wrap;rounded=0;fontSize=10;" parent="2F78YByumwkLW7142CHS-1" vertex="1">
          <mxGeometry x="60" y="230" width="40" height="20" as="geometry" />
        </mxCell>
        <mxCell id="2F78YByumwkLW7142CHS-14" value="2" style="text;html=1;align=center;verticalAlign=middle;whiteSpace=wrap;rounded=0;fontSize=10;" parent="2F78YByumwkLW7142CHS-1" vertex="1">
          <mxGeometry x="100" y="230" width="40" height="20" as="geometry" />
        </mxCell>
        <mxCell id="2F78YByumwkLW7142CHS-15" value="3" style="text;html=1;align=center;verticalAlign=middle;whiteSpace=wrap;rounded=0;fontSize=10;" parent="2F78YByumwkLW7142CHS-1" vertex="1">
          <mxGeometry x="140" y="230" width="40" height="20" as="geometry" />
        </mxCell>
        <mxCell id="2F78YByumwkLW7142CHS-16" value="4" style="text;html=1;align=center;verticalAlign=middle;whiteSpace=wrap;rounded=0;fontSize=10;" parent="2F78YByumwkLW7142CHS-1" vertex="1">
          <mxGeometry x="180" y="230" width="40" height="20" as="geometry" />
        </mxCell>
        <mxCell id="2F78YByumwkLW7142CHS-17" value="5" style="text;html=1;align=center;verticalAlign=middle;whiteSpace=wrap;rounded=0;fontSize=10;" parent="2F78YByumwkLW7142CHS-1" vertex="1">
          <mxGeometry x="220" y="230" width="40" height="20" as="geometry" />
        </mxCell>
        <mxCell id="2F78YByumwkLW7142CHS-18" value="6" style="text;html=1;align=center;verticalAlign=middle;whiteSpace=wrap;rounded=0;fontSize=10;" parent="2F78YByumwkLW7142CHS-1" vertex="1">
          <mxGeometry x="260" y="230" width="40" height="20" as="geometry" />
        </mxCell>
        <mxCell id="2F78YByumwkLW7142CHS-19" value="7" style="text;html=1;align=center;verticalAlign=middle;whiteSpace=wrap;rounded=0;fontSize=10;" parent="2F78YByumwkLW7142CHS-1" vertex="1">
          <mxGeometry x="300" y="230" width="40" height="20" as="geometry" />
        </mxCell>
        <mxCell id="2F78YByumwkLW7142CHS-20" value="8" style="text;html=1;align=center;verticalAlign=middle;whiteSpace=wrap;rounded=0;fontSize=10;" parent="2F78YByumwkLW7142CHS-1" vertex="1">
          <mxGeometry x="340" y="230" width="40" height="20" as="geometry" />
        </mxCell>
        <mxCell id="2F78YByumwkLW7142CHS-21" value="" style="text;html=1;align=center;verticalAlign=middle;whiteSpace=wrap;rounded=0;fillColor=#dae8fc;strokeColor=#6c8ebf;fontSize=14;" parent="2F78YByumwkLW7142CHS-1" vertex="1">
          <mxGeometry x="110" y="70" width="20" height="160" as="geometry" />
        </mxCell>
        <mxCell id="2F78YByumwkLW7142CHS-22" value="" style="text;html=1;align=center;verticalAlign=middle;whiteSpace=wrap;rounded=0;fillColor=#d5e8d4;strokeColor=#82b366;fontSize=14;" parent="2F78YByumwkLW7142CHS-1" vertex="1">
          <mxGeometry x="150" y="110" width="20" height="120" as="geometry" />
        </mxCell>
        <mxCell id="2F78YByumwkLW7142CHS-23" value="" style="text;html=1;align=center;verticalAlign=middle;whiteSpace=wrap;rounded=0;fillColor=#f5f5f5;strokeColor=#666666;fontSize=14;fontColor=#333333;" parent="2F78YByumwkLW7142CHS-1" vertex="1">
          <mxGeometry x="190" y="190" width="20" height="40" as="geometry" />
        </mxCell>
        <mxCell id="2F78YByumwkLW7142CHS-24" value="" style="text;html=1;align=center;verticalAlign=middle;whiteSpace=wrap;rounded=0;fillColor=#f5f5f5;strokeColor=#666666;fontSize=14;fontColor=#333333;" parent="2F78YByumwkLW7142CHS-1" vertex="1">
          <mxGeometry x="230" y="130" width="20" height="100" as="geometry" />
        </mxCell>
        <mxCell id="2F78YByumwkLW7142CHS-25" value="" style="text;html=1;align=center;verticalAlign=middle;whiteSpace=wrap;rounded=0;fillColor=#f5f5f5;strokeColor=#666666;fontSize=14;fontColor=#333333;" parent="2F78YByumwkLW7142CHS-1" vertex="1">
          <mxGeometry x="270" y="150" width="20" height="80" as="geometry" />
        </mxCell>
        <mxCell id="2F78YByumwkLW7142CHS-26" value="" style="text;html=1;align=center;verticalAlign=middle;whiteSpace=wrap;rounded=0;fillColor=#f5f5f5;strokeColor=#666666;fontSize=14;fontColor=#333333;" parent="2F78YByumwkLW7142CHS-1" vertex="1">
          <mxGeometry x="310" y="70" width="20" height="160" as="geometry" />
        </mxCell>
        <mxCell id="2F78YByumwkLW7142CHS-27" value="" style="text;html=1;align=center;verticalAlign=middle;whiteSpace=wrap;rounded=0;fontSize=14;fillColor=#f5f5f5;fontColor=#333333;strokeColor=#666666;" parent="2F78YByumwkLW7142CHS-1" vertex="1">
          <mxGeometry x="350" y="170" width="20" height="60" as="geometry" />
        </mxCell>
        <mxCell id="2F78YByumwkLW7142CHS-28" value="9" style="text;html=1;align=center;verticalAlign=middle;whiteSpace=wrap;rounded=0;fontSize=10;" parent="2F78YByumwkLW7142CHS-1" vertex="1">
          <mxGeometry x="380" y="230" width="40" height="20" as="geometry" />
        </mxCell>
        <mxCell id="2F78YByumwkLW7142CHS-29" value="" style="text;html=1;align=center;verticalAlign=middle;whiteSpace=wrap;rounded=0;fillColor=#f5f5f5;strokeColor=#666666;fontSize=14;fontColor=#333333;" parent="2F78YByumwkLW7142CHS-1" vertex="1">
          <mxGeometry x="390" y="90" width="20" height="140" as="geometry" />
        </mxCell>
        <mxCell id="2F78YByumwkLW7142CHS-30" value="start" style="text;html=1;align=center;verticalAlign=middle;whiteSpace=wrap;rounded=0;fontSize=10;" parent="2F78YByumwkLW7142CHS-1" vertex="1">
          <mxGeometry x="100" y="40" width="40" height="20" as="geometry" />
        </mxCell>
        <mxCell id="2F78YByumwkLW7142CHS-31" value="end" style="text;html=1;align=center;verticalAlign=middle;whiteSpace=wrap;rounded=0;fontSize=10;" parent="2F78YByumwkLW7142CHS-1" vertex="1">
          <mxGeometry x="140" y="40" width="40" height="20" as="geometry" />
        </mxCell>
        <mxCell id="2F78YByumwkLW7142CHS-32" value="" style="rounded=0;whiteSpace=wrap;html=1;opacity=60;fillColor=#ffe6cc;strokeColor=#d79b00;" parent="2F78YByumwkLW7142CHS-1" vertex="1">
          <mxGeometry x="130" y="110" width="20" height="120" as="geometry" />
        </mxCell>
        <mxCell id="2F78YByumwkLW7142CHS-33" value="6" style="text;html=1;align=center;verticalAlign=middle;whiteSpace=wrap;rounded=0;fillColor=#ffe6cc;strokeColor=#d79b00;fontSize=14;fontColor=#333333;" parent="2F78YByumwkLW7142CHS-1" vertex="1">
          <mxGeometry x="480" y="40" width="40" height="40" as="geometry" />
        </mxCell>
        <mxCell id="2F78YByumwkLW7142CHS-34" value="water" style="text;html=1;align=center;verticalAlign=middle;whiteSpace=wrap;rounded=0;fontSize=10;" parent="2F78YByumwkLW7142CHS-1" vertex="1">
          <mxGeometry x="480" y="80" width="40" height="20" as="geometry" />
        </mxCell>
        <mxCell id="2F78YByumwkLW7142CHS-35" value="49" style="text;html=1;align=center;verticalAlign=middle;whiteSpace=wrap;rounded=0;fillColor=#f5f5f5;strokeColor=#666666;fontSize=14;fontColor=#333333;" parent="2F78YByumwkLW7142CHS-1" vertex="1">
          <mxGeometry x="480" y="120" width="40" height="40" as="geometry" />
        </mxCell>
        <mxCell id="2F78YByumwkLW7142CHS-36" value="max" style="text;html=1;align=center;verticalAlign=middle;whiteSpace=wrap;rounded=0;fontSize=10;" parent="2F78YByumwkLW7142CHS-1" vertex="1">
          <mxGeometry x="480" y="160" width="40" height="20" as="geometry" />
        </mxCell>
        <mxCell id="j8qaFaks_WMicA3NAQSK-0" value="height" style="text;html=1;align=center;verticalAlign=middle;whiteSpace=wrap;rounded=0;fontSize=10;" vertex="1" parent="2F78YByumwkLW7142CHS-1">
          <mxGeometry x="40" y="250" width="400" height="20" as="geometry" />
        </mxCell>
      </root>
    </mxGraphModel>
  </diagram>
</mxfile>
